v 13.149885 11.999756 -6.737583
v 13.136301 11.999756 -8.937624
v 15.289001 11.999756 -6.750793
v 14.692360 14.398245 -8.947231
v 15.275416 14.398245 -8.950832
v 14.692360 14.007458 -8.947231
v 13.732941 14.370543 -6.741184
v 13.149885 11.999756 -6.737583
v 15.289001 14.398245 -6.750794
v 13.807367 13.044163 -8.736837
v 13.804731 13.040793 -8.715714
v 13.813847 13.047352 -8.715771
v 13.802922 13.035285 -8.736828
v 13.803476 13.030910 -8.715706
v 13.804731 13.040793 -8.715714
v 13.805226 13.027203 -8.736797
v 13.810622 13.022302 -8.715751
v 13.803476 13.030910 -8.715706
v 13.813357 13.021323 -8.736893
v 13.823036 13.023151 -8.715828
v 13.810622 13.022302 -8.715751
v 13.826527 13.026156 -8.736940
v 13.828598 13.031510 -8.715862
v 13.823036 13.023151 -8.715828
v 13.828249 13.038465 -8.736967
v 13.826661 13.042523 -8.715850
v 13.828598 13.031510 -8.715862
v 13.802922 13.035285 -8.736828
v 13.789957 13.039492 -8.742090
v 13.791842 13.022177 -8.742230
v 13.819399 13.047281 -8.736896
v 13.813847 13.047352 -8.715771
v 13.826661 13.042523 -8.715850
v 13.804731 13.040793 -8.715714
v 13.803476 13.030910 -8.715706
v 13.810622 13.022302 -8.715751
v 13.823036 13.023151 -8.715828
v 13.828598 13.031510 -8.715862
v 13.826661 13.042523 -8.715850
v 13.813847 13.047352 -8.715771
v 13.842479 13.037716 -8.742463
v 13.847826 13.031187 -8.746922
v 13.847999 13.046320 -8.749308
v 13.813357 13.021323 -8.736893
v 13.819252 13.007729 -8.742319
v 13.826527 13.026156 -8.736940
v 13.828249 13.038465 -8.736967
v 13.842479 13.037716 -8.742463
v 13.834390 13.053611 -8.742542
v 13.826527 13.026156 -8.736940
v 13.837901 13.014535 -8.743965
v 13.842479 13.037716 -8.742463
v 13.826527 13.026156 -8.736940
v 13.819252 13.007729 -8.742319
v 13.837901 13.014535 -8.743965
v 13.828249 13.038465 -8.736967
v 13.834390 13.053611 -8.742542
v 13.819399 13.047281 -8.736896
v 13.813357 13.021323 -8.736893
v 13.798680 13.009951 -8.744089
v 13.819252 13.007729 -8.742319
v 13.826527 13.026156 -8.736940
v 13.842479 13.037716 -8.742463
v 13.828249 13.038465 -8.736967
v 13.842479 13.037716 -8.742463
v 13.847999 13.046320 -8.749308
v 13.834390 13.053611 -8.742542
v 13.798680 13.009951 -8.744089
v 13.805993 13.003805 -8.746665
v 13.819252 13.007729 -8.742319
v 13.834390 13.053611 -8.742542
v 13.833824 13.061247 -8.746761
v 13.818703 13.060812 -8.742241
v 13.818703 13.060812 -8.742241
v 13.833824 13.061247 -8.746761
v 13.815042 13.066606 -8.746658
v 13.798857 13.055319 -8.742258
v 13.785944 13.046959 -8.746603
v 13.789957 13.039492 -8.742090
v 13.797955 13.061110 -8.746563
v 13.801034 13.066229 -8.752949
v 13.792665 13.060883 -8.752602
v 13.833824 13.061247 -8.746761
v 13.835992 13.063261 -8.753279
v 13.823523 13.068769 -8.752979
v 13.833824 13.061247 -8.746761
v 13.823523 13.068769 -8.752979
v 13.815042 13.066606 -8.746658
v 13.815042 13.066606 -8.746658
v 13.823523 13.068769 -8.752979
v 13.812455 13.069453 -8.753506
v 13.821326 13.000471 -8.749006
v 13.830025 13.001929 -8.753212
v 13.837901 13.014535 -8.743965
v 13.784851 13.024595 -8.746295
v 13.780695 13.032163 -8.753678
v 13.782845 13.021806 -8.752781
v 13.847826 13.031187 -8.746922
v 13.846447 13.018528 -8.749783
v 13.851070 13.033478 -8.753294
v 13.784851 13.024595 -8.746295
v 13.789036 13.011967 -8.750965
v 13.798680 13.009951 -8.744089
v 13.798680 13.009951 -8.744089
v 13.789036 13.011967 -8.750965
v 13.796758 13.004509 -8.753006
v 13.783003 13.047820 -8.752762
v 13.794035 13.055114 -8.755844
v 13.780695 13.032163 -8.753678
v 13.846447 13.018528 -8.749783
v 13.848883 13.023670 -8.754039
v 13.851070 13.033478 -8.753294
v 13.848883 13.023670 -8.754039
v 13.843840 13.045211 -8.756151
v 13.851070 13.033478 -8.753294
v 13.782845 13.021806 -8.752781
v 13.780695 13.032163 -8.753678
v 13.799200 13.009514 -8.755915
v 13.851070 13.033478 -8.753294
v 13.843840 13.045211 -8.756151
v 13.844898 13.054542 -8.753141
v 13.844898 13.054542 -8.753141
v 13.843840 13.045211 -8.756151
v 13.835992 13.063261 -8.753279
v 13.801034 13.066229 -8.752949
v 13.812455 13.069453 -8.753506
v 13.794035 13.055114 -8.755844
v 13.792665 13.060883 -8.752602
v 13.794035 13.055114 -8.755844
v 13.783003 13.047820 -8.752762
v 13.823523 13.068769 -8.752979
v 13.827194 13.062193 -8.755791
v 13.812455 13.069453 -8.753506
v 13.812455 13.069453 -8.753506
v 13.827516 13.046811 -8.759077
v 13.803370 13.046121 -8.758808
v 13.843840 13.045211 -8.756151
v 13.827516 13.046811 -8.759077
v 13.827194 13.062193 -8.755791
v 13.799200 13.009514 -8.755915
v 13.814901 13.022089 -8.759544
v 13.829537 13.007396 -8.756171
v 13.827194 13.062193 -8.755791
v 13.827516 13.046811 -8.759077
v 13.812455 13.069453 -8.753506
v 13.794035 13.055114 -8.755844
v 13.803370 13.046121 -8.758808
v 13.780695 13.032163 -8.753678
v 13.780695 13.032163 -8.753678
v 13.803370 13.046121 -8.758808
v 13.800835 13.026427 -8.758757
v 13.829537 13.007396 -8.756171
v 13.829909 13.024944 -8.758902
v 13.848883 13.023670 -8.754039
v 15.275416 14.398245 -8.950832
v 15.275603 14.428708 -8.920370
v 15.306066 14.398245 -8.920559
v 15.288813 14.428708 -6.781256
v 15.289001 14.398245 -6.750794
v 15.319275 14.398245 -6.781444
v 13.136301 11.999756 -8.937624
v 13.106115 11.999753 -8.906427
v 13.136933 13.814078 -8.937587
v 14.692360 12.067814 -8.947231
v 15.275416 11.999756 -8.950832
v 13.136301 11.999756 -8.937624
v 14.692982 14.428708 -8.846500
v 14.659739 14.428708 -6.800648
v 15.288813 14.428708 -6.781256
v 15.275603 14.428708 -8.920370
v 13.719543 14.428708 -8.910761
v 13.732752 14.428708 -6.771647
v 13.719356 14.380935 -8.941223
v 13.719356 14.007458 -8.941223
v 13.136933 13.814078 -8.937587
v 13.136301 14.398245 -8.937622
v 15.319275 11.999756 -6.781444
v 15.306066 11.999756 -8.920559
v 15.306066 14.398245 -8.920559
v 15.319275 14.398245 -6.781444
v 13.719356 12.067814 -8.941223
v 13.119236 14.428709 -6.767859
v 13.106027 14.428708 -8.906973
v 13.106240 14.007458 -8.872395
v 15.289001 14.398245 -6.750794
v 14.705946 14.398245 -6.747193
v 13.732941 14.370543 -6.741184
v 14.695693 14.007458 -8.407464
v 14.692360 14.007458 -8.947231
v 14.692360 12.067814 -8.947231
v 14.695693 12.067814 -8.407463
v 13.106115 11.999753 -8.906427
v 13.119236 11.999756 -6.767858
v 13.136933 13.814078 -8.937587
v 13.719356 14.007458 -8.941223
v 13.719356 12.067814 -8.941223
v 13.119236 11.999756 -6.767858
v 13.106115 11.999753 -8.906427
v 13.136301 11.999756 -8.937624
v 13.149885 11.999756 -6.737583
v 13.149885 14.398245 -6.737584
v 15.275416 11.999756 -8.950832
v 15.306066 11.999756 -8.920559
v 15.319275 11.999756 -6.781444
v 13.106027 14.428708 -8.906973
v 13.119236 14.428709 -6.767859
v 14.695693 12.067814 -8.407463
v 13.722688 12.067814 -8.401455
v 13.722688 14.007458 -8.401455
v 14.695693 14.007458 -8.407464
v 15.289001 11.999756 -6.750793
v 14.695693 12.067814 -8.407463
v 14.692360 12.067814 -8.947231
v 13.719356 12.067814 -8.941223
v 13.722688 12.067814 -8.401455
v 14.695693 14.007458 -8.407464
v 13.722688 14.007458 -8.401455
v 13.719356 14.007458 -8.941223
v 14.692360 14.007458 -8.947231
v 13.722688 12.067814 -8.401455
v 13.719356 12.067814 -8.941223
v 13.719356 14.007458 -8.941223
v 13.722688 14.007458 -8.401455
v 13.789957 13.039492 -8.742090
v 13.802922 13.035285 -8.736828
v 13.807367 13.044163 -8.736837
v 13.798857 13.055319 -8.742258
v 13.819399 13.047281 -8.736896
v 13.807367 13.044163 -8.736837
v 13.813847 13.047352 -8.715771
v 13.807367 13.044163 -8.736837
v 13.802922 13.035285 -8.736828
v 13.804731 13.040793 -8.715714
v 13.802922 13.035285 -8.736828
v 13.805226 13.027203 -8.736797
v 13.803476 13.030910 -8.715706
v 13.810622 13.022302 -8.715751
v 13.805226 13.027203 -8.736797
v 13.813357 13.021323 -8.736893
v 13.813357 13.021323 -8.736893
v 13.826527 13.026156 -8.736940
v 13.823036 13.023151 -8.715828
v 13.826527 13.026156 -8.736940
v 13.828249 13.038465 -8.736967
v 13.828598 13.031510 -8.715862
v 13.828249 13.038465 -8.736967
v 13.819399 13.047281 -8.736896
v 13.826661 13.042523 -8.715850
v 13.805226 13.027203 -8.736797
v 13.802922 13.035285 -8.736828
v 13.791842 13.022177 -8.742230
v 13.798857 13.055319 -8.742258
v 13.807367 13.044163 -8.736837
v 13.819399 13.047281 -8.736896
v 13.818703 13.060812 -8.742241
v 13.798680 13.009951 -8.744089
v 13.813357 13.021323 -8.736893
v 13.805226 13.027203 -8.736797
v 13.791842 13.022177 -8.742230
v 13.819399 13.047281 -8.736896
v 13.834390 13.053611 -8.742542
v 13.818703 13.060812 -8.742241
v 13.815042 13.066606 -8.746658
v 13.797955 13.061110 -8.746563
v 13.798857 13.055319 -8.742258
v 13.818703 13.060812 -8.742241
v 13.791842 13.022177 -8.742230
v 13.784851 13.024595 -8.746295
v 13.798680 13.009951 -8.744089
v 13.834390 13.053611 -8.742542
v 13.847999 13.046320 -8.749308
v 13.833824 13.061247 -8.746761
v 13.847826 13.031187 -8.746922
v 13.842479 13.037716 -8.742463
v 13.837901 13.014535 -8.743965
v 13.846447 13.018528 -8.749783
v 13.819252 13.007729 -8.742319
v 13.805993 13.003805 -8.746665
v 13.821326 13.000471 -8.749006
v 13.798857 13.055319 -8.742258
v 13.797955 13.061110 -8.746563
v 13.785944 13.046959 -8.746603
v 13.819252 13.007729 -8.742319
v 13.821326 13.000471 -8.749006
v 13.837901 13.014535 -8.743965
v 13.789957 13.039492 -8.742090
v 13.785944 13.046959 -8.746603
v 13.784851 13.024595 -8.746295
v 13.791842 13.022177 -8.742230
v 13.789957 13.039492 -8.742090
v 13.784851 13.024595 -8.746295
v 13.801034 13.066229 -8.752949
v 13.797955 13.061110 -8.746563
v 13.815042 13.066606 -8.746658
v 13.812455 13.069453 -8.753506
v 13.833824 13.061247 -8.746761
v 13.847999 13.046320 -8.749308
v 13.844898 13.054542 -8.753141
v 13.805993 13.003805 -8.746665
v 13.796758 13.004509 -8.753006
v 13.810369 12.999614 -8.753006
v 13.792665 13.060883 -8.752602
v 13.783003 13.047820 -8.752762
v 13.785944 13.046959 -8.746603
v 13.797955 13.061110 -8.746563
v 13.833824 13.061247 -8.746761
v 13.844898 13.054542 -8.753141
v 13.835992 13.063261 -8.753279
v 13.821326 13.000471 -8.749006
v 13.805993 13.003805 -8.746665
v 13.810369 12.999614 -8.753006
v 13.780695 13.032163 -8.753678
v 13.784851 13.024595 -8.746295
v 13.785944 13.046959 -8.746603
v 13.783003 13.047820 -8.752762
v 13.837901 13.014535 -8.743965
v 13.830025 13.001929 -8.753212
v 13.841650 13.010566 -8.753323
v 13.837901 13.014535 -8.743965
v 13.841650 13.010566 -8.753323
v 13.846447 13.018528 -8.749783
v 13.829909 13.024944 -8.758902
v 13.827516 13.046811 -8.759077
v 13.843840 13.045211 -8.756151
v 13.848883 13.023670 -8.754039
v 13.784851 13.024595 -8.746295
v 13.782845 13.021806 -8.752781
v 13.789036 13.011967 -8.750965
v 13.847826 13.031187 -8.746922
v 13.851070 13.033478 -8.753294
v 13.847999 13.046320 -8.749308
v 13.805993 13.003805 -8.746665
v 13.798680 13.009951 -8.744089
v 13.796758 13.004509 -8.753006
v 13.846447 13.018528 -8.749783
v 13.841650 13.010566 -8.753323
v 13.848883 13.023670 -8.754039
v 13.789036 13.011967 -8.750965
v 13.782845 13.021806 -8.752781
v 13.796758 13.004509 -8.753006
v 13.847999 13.046320 -8.749308
v 13.851070 13.033478 -8.753294
v 13.844898 13.054542 -8.753141
v 13.821326 13.000471 -8.749006
v 13.810369 12.999614 -8.753006
v 13.830025 13.001929 -8.753212
v 13.841650 13.010566 -8.753323
v 13.829537 13.007396 -8.756171
v 13.848883 13.023670 -8.754039
v 13.796758 13.004509 -8.753006
v 13.782845 13.021806 -8.752781
v 13.799200 13.009514 -8.755915
v 13.810369 12.999614 -8.753006
v 13.796758 13.004509 -8.753006
v 13.799200 13.009514 -8.755915
v 13.835992 13.063261 -8.753279
v 13.843840 13.045211 -8.756151
v 13.827194 13.062193 -8.755791
v 13.810369 12.999614 -8.753006
v 13.799200 13.009514 -8.755915
v 13.829537 13.007396 -8.756171
v 13.830025 13.001929 -8.753212
v 13.810369 12.999614 -8.753006
v 13.829537 13.007396 -8.756171
v 13.792665 13.060883 -8.752602
v 13.801034 13.066229 -8.752949
v 13.794035 13.055114 -8.755844
v 13.823523 13.068769 -8.752979
v 13.835992 13.063261 -8.753279
v 13.827194 13.062193 -8.755791
v 13.841650 13.010566 -8.753323
v 13.830025 13.001929 -8.753212
v 13.829537 13.007396 -8.756171
v 13.816425 13.041064 -8.759733
v 13.814901 13.022089 -8.759544
v 13.800835 13.026427 -8.758757
v 13.803370 13.046121 -8.758808
v 13.799200 13.009514 -8.755915
v 13.780695 13.032163 -8.753678
v 13.800835 13.026427 -8.758757
v 13.799200 13.009514 -8.755915
v 13.800835 13.026427 -8.758757
v 13.814901 13.022089 -8.759544
v 13.794035 13.055114 -8.755844
v 13.812455 13.069453 -8.753506
v 13.803370 13.046121 -8.758808
v 13.829537 13.007396 -8.756171
v 13.814901 13.022089 -8.759544
v 13.829909 13.024944 -8.758902
v 13.803370 13.046121 -8.758808
v 13.827516 13.046811 -8.759077
v 13.816425 13.041064 -8.759733
v 13.816425 13.041064 -8.759733
v 13.827516 13.046811 -8.759077
v 13.829909 13.024944 -8.758902
v 13.814901 13.022089 -8.759544
v 13.742991 13.979214 -8.745578
v 14.675848 13.979214 -8.751339
v 14.676226 13.979214 -8.690147
v 13.743369 13.979214 -8.684386
v 14.675848 12.080061 -8.751337
v 13.742991 12.080061 -8.745578
v 13.743369 12.080061 -8.684386
v 14.676226 12.080061 -8.690145
v 14.723328 12.055632 -8.751631
v 14.723705 12.055632 -8.690439
v 13.695890 12.055632 -8.684093
v 13.695513 12.055632 -8.745285
v 14.723328 12.055632 -8.751631
v 13.695513 12.055632 -8.745285
v 13.742991 12.080061 -8.745578
v 14.675848 12.080061 -8.751337
v 13.695890 12.055632 -8.684093
v 14.723705 12.055632 -8.690439
v 14.676226 12.080061 -8.690145
v 13.743369 12.080061 -8.684386
v 13.695513 14.029259 -8.745285
v 14.723328 14.029259 -8.751632
v 14.675848 13.979214 -8.751339
v 13.742991 13.979214 -8.745578
v 14.676226 13.979214 -8.690147
v 14.723705 14.029259 -8.690440
v 14.723705 14.029259 -8.690440
v 14.723705 12.055632 -8.690439
v 14.723328 12.055632 -8.751631
v 14.723328 14.029259 -8.751632
v 14.675848 13.979214 -8.751339
v 14.675848 12.080061 -8.751337
v 14.676226 12.080061 -8.690145
v 14.676226 13.979214 -8.690147
v 13.695890 14.029259 -8.684093
v 13.743369 13.979214 -8.684386
v 13.743369 13.979214 -8.684386
v 13.743369 12.080061 -8.684386
v 13.742991 12.080061 -8.745578
v 13.742991 13.979214 -8.745578
v 13.695513 14.029259 -8.745285
v 13.695513 12.055632 -8.745285
v 13.695890 12.055632 -8.684093
v 13.695890 14.029259 -8.684093
v 13.695890 14.029259 -8.684093
v 14.723705 14.029259 -8.690440
v 14.723328 14.029259 -8.751632
v 13.695513 14.029259 -8.745285
v 14.682054 12.081769 -8.704025
v 14.681893 12.081769 -8.729925
v 14.681893 13.978395 -8.729926
v 14.682054 13.978395 -8.704027
v 13.742945 12.081769 -8.698227
v 14.682054 12.081769 -8.704025
v 14.682054 13.978395 -8.704027
v 13.742945 13.978395 -8.698227
v 13.742785 12.081769 -8.724127
v 13.742945 12.081769 -8.698227
v 13.742945 13.978395 -8.698227
v 13.742785 13.978395 -8.724127
v 14.681893 12.081769 -8.729925
v 14.682054 12.081769 -8.704025
v 13.742945 12.081769 -8.698227
v 13.742785 12.081769 -8.724127
v 13.742785 13.978395 -8.724127
v 13.742945 13.978395 -8.698227
v 14.682054 13.978395 -8.704027
v 14.681893 13.978395 -8.729926
v 15.306066 14.398245 -8.920559
v 15.275603 14.428708 -8.920370
v 15.288813 14.428708 -6.781256
v 15.319275 14.398245 -6.781444
v 13.149885 14.398245 -6.737584
v 13.732941 14.370543 -6.741184
v 13.732752 14.428708 -6.771647
v 13.119236 14.428709 -6.767859
v 13.106240 14.007458 -8.872395
v 13.106027 14.428708 -8.906973
v 13.136301 14.398245 -8.937622
v 13.136933 13.814078 -8.937587
v 13.119236 14.428709 -6.767859
v 13.149885 11.999756 -6.737583
v 13.149885 14.398245 -6.737584
v 14.692360 14.398245 -8.947231
v 14.692982 14.428708 -8.846500
v 15.275603 14.428708 -8.920370
v 15.275416 14.398245 -8.950832
v 15.288813 14.428708 -6.781256
v 14.659739 14.428708 -6.800648
v 14.705946 14.398245 -6.747193
v 15.289001 14.398245 -6.750794
v 13.719543 14.428708 -8.910761
v 13.719356 14.380935 -8.941223
v 13.136301 14.398245 -8.937622
v 13.106027 14.428708 -8.906973
v 14.659739 14.428708 -6.800648
v 13.732752 14.428708 -6.771647
v 13.732941 14.370543 -6.741184
v 14.705946 14.398245 -6.747193
v 13.719543 14.428708 -8.910761
v 14.692982 14.428708 -8.846500
v 14.692360 14.398245 -8.947231
v 13.719356 14.380935 -8.941223
v 15.289001 14.398245 -6.750794
v 15.289001 11.999756 -6.750793
v 15.319275 11.999756 -6.781444
v 15.319275 14.398245 -6.781444
v 15.275416 14.398245 -8.950832
v 15.306066 14.398245 -8.920559
v 15.306066 11.999756 -8.920559
v 15.275416 11.999756 -8.950832
v 13.106115 11.999753 -8.906427
v 13.106240 14.007458 -8.872395
v 13.136933 13.814078 -8.937587
v 13.119236 11.999756 -6.767858
vt 0.000000 0.000000
vn -0.0000 -1.0000 -0.0000
vn -0.0062 -0.0000 -1.0000
vn 0.0062 -0.0000 1.0000
vn -0.5828 0.8107 0.0566
vn -0.9907 0.1259 0.0521
vn -0.7685 -0.6381 0.0484
vn 0.0687 -0.9961 0.0550
vn 0.8312 -0.5528 0.0587
vn 0.9841 0.1731 0.0407
vn -0.3894 -0.0498 0.9197
vn -0.3804 -0.0728 0.9219
vn -0.3741 -0.0318 0.9268
vn 0.3516 0.9319 0.0893
vn 0.7227 0.1120 0.6820
vn 0.7066 0.1098 0.6991
vn 0.7042 0.0968 0.7033
vn 0.1216 -0.3221 0.9389
vn 0.1303 -0.2998 0.9451
vn 0.3624 0.1890 0.9126
vn 0.3464 0.2077 0.9148
vn 0.3535 0.1673 0.9203
vn 0.4129 -0.1399 0.9000
vn 0.4123 -0.1155 0.9037
vn 0.3935 -0.1538 0.9064
vn 0.2080 -0.3489 0.9138
vn 0.2310 -0.3403 0.9115
vn 0.1920 -0.3325 0.9233
vn 0.2502 0.2436 0.9371
vn 0.2286 0.2344 0.9449
vn -0.1222 -0.4132 0.9024
vn -0.0976 -0.4158 0.9042
vn -0.1314 -0.3918 0.9106
vn 0.3577 -0.0480 0.9326
vn 0.3352 -0.0547 0.9406
vn 0.5494 0.3015 0.7793
vn 0.5374 0.2839 0.7941
vn 0.5546 0.2585 0.7909
vn -0.1099 -0.5245 0.8443
vn -0.1211 -0.5072 0.8533
vn -0.1527 -0.5065 0.8486
vn 0.2363 0.5046 0.8304
vn 0.2306 0.4829 0.8447
vn 0.2604 0.4727 0.8419
vn 0.2142 0.6778 0.7034
vn 0.1876 0.6717 0.7167
vn 0.1985 0.6641 0.7208
vn -0.4778 0.2535 0.8411
vn -0.4547 0.2605 0.8517
vn -0.4457 0.2880 0.8476
vn -0.4805 0.7864 0.3883
vn -0.5411 0.7422 0.3954
vn -0.4221 0.8026 0.4215
vn 0.3829 0.8424 0.3791
vn 0.3154 0.8666 0.3868
vn 0.4306 0.8010 0.4160
vn 0.2219 0.7904 0.5710
vn 0.1719 0.7703 0.6140
vn 0.2350 0.7842 0.5743
vn 0.0417 0.9305 0.3639
vn -0.0304 0.9299 0.3667
vn 0.0805 0.9029 0.4223
vn 0.4120 -0.6905 0.5946
vn 0.4357 -0.6394 0.6335
vn 0.3994 -0.6965 0.5962
vn -0.9241 -0.1555 0.3490
vn -0.9048 -0.2288 0.3591
vn -0.8999 -0.1336 0.4152
vn 0.9002 -0.1941 0.3899
vn 0.9190 -0.1208 0.3753
vn 0.8684 -0.2076 0.4502
vn -0.5767 -0.4514 0.6809
vn -0.5220 -0.4554 0.7212
vn -0.5851 -0.4391 0.6818
vn -0.5218 -0.6762 0.5201
vn -0.4647 -0.7238 0.5101
vn -0.5016 -0.6399 0.5822
vn -0.1975 0.1057 -0.9746
vn -0.3581 0.0805 -0.9302
vn -0.3183 0.1384 -0.9378
vn 0.9597 -0.1777 0.2175
vn 0.9053 -0.1796 0.3850
vn 0.9155 -0.2939 0.2748
vn 0.3517 0.1297 -0.9271
vn 0.3694 -0.0420 -0.9283
vn 0.2255 -0.0325 -0.9737
vn -0.1757 -0.0692 -0.9820
vn -0.2680 -0.1726 -0.9478
vn -0.3142 -0.1163 -0.9422
vn 0.5413 0.3059 -0.7832
vn 0.6304 0.1872 -0.7533
vn 0.6093 0.0449 -0.7917
vn 0.1488 0.2269 -0.9625
vn 0.2697 0.3019 -0.9144
vn 0.3508 0.1509 -0.9242
vn -0.0571 0.2263 -0.9724
vn -0.1716 0.3138 -0.9339
vn -0.1143 0.3573 -0.9270
vn -0.4855 0.2174 -0.8468
vn -0.4884 0.3586 -0.7956
vn -0.3558 0.4410 -0.8240
vn -0.0053 0.3173 -0.9483
vn 0.0430 0.4486 -0.8927
vn 0.1032 0.4113 -0.9056
vn -0.0135 0.1922 -0.9813
vn -0.0567 0.2373 -0.9698
vn -0.0030 0.2648 -0.9643
vn 0.1592 0.2247 -0.9613
vn 0.1914 0.2484 -0.9496
vn 0.2066 0.1751 -0.9626
vn 0.0095 -0.2367 -0.9715
vn 0.0029 -0.2759 -0.9612
vn -0.0589 -0.2324 -0.9708
vn -0.0804 0.1882 -0.9788
vn -0.0660 0.2435 -0.9677
vn -0.0256 0.1802 -0.9833
vn -0.2607 0.0198 -0.9652
vn -0.2866 0.0349 -0.9574
vn -0.2273 0.0819 -0.9704
vn -0.2013 0.0329 -0.9790
vn -0.2419 -0.0123 -0.9702
vn -0.2746 0.0387 -0.9608
vn 0.2513 -0.1210 -0.9603
vn 0.2745 -0.1568 -0.9487
vn 0.2011 -0.1656 -0.9655
vn 0.5738 0.5774 -0.5809
vn 0.5809 0.5773 0.5738
vn -0.7187 0.0003 -0.6954
vn -0.0000 1.0000 -0.0000
vn -0.0062 -0.0001 -1.0000
vn 1.0000 -0.0000 -0.0062
vn -1.0000 -0.0000 0.0062
vn 0.0062 0.0001 1.0000
vn -1.0000 -0.0000 0.0061
vn 0.0001 -1.0000 -0.0000
vn -0.3068 0.1771 0.9352
vn -0.3289 0.1843 0.9262
vn -0.3408 0.1628 0.9259
vn -0.2507 0.9656 -0.0691
vn -0.8935 0.4473 -0.0401
vn -0.9612 -0.2742 -0.0316
vn -0.5859 -0.8095 -0.0383
vn 0.3431 -0.9362 -0.0765
vn 0.9884 -0.1384 -0.0620
vn 0.7031 0.7063 -0.0829
vn -0.3438 -0.0944 0.9343
vn -0.3220 -0.0862 0.9428
vn -0.0839 0.3484 0.9336
vn -0.0979 0.3669 0.9251
vn -0.0979 0.3670 0.9251
vn -0.1218 0.3602 0.9249
vn -0.2287 -0.2791 0.9326
vn -0.2409 -0.2988 0.9234
vn -0.2290 -0.3197 0.9194
vn 0.1870 0.3692 0.9103
vn 0.1645 0.3794 0.9105
vn 0.1882 0.3461 0.9191
vn -0.1621 0.5454 0.8223
vn -0.1615 0.5457 0.8223
vn -0.1383 0.5585 0.8179
vn -0.1733 0.5688 0.8040
vn -0.5807 -0.4145 0.7007
vn -0.5546 -0.4266 0.7144
vn -0.5641 -0.4150 0.7138
vn 0.5954 0.4169 0.6868
vn 0.5703 0.4332 0.6979
vn 0.5761 0.4209 0.7007
vn 0.5567 -0.1859 0.8096
vn 0.5557 -0.2146 0.8032
vn 0.5793 -0.1767 0.7957
vn 0.5615 -0.1840 0.8068
vn -0.0597 -0.6893 0.7220
vn -0.0296 -0.6844 0.7285
vn -0.0387 -0.6772 0.7348
vn -0.5435 0.4639 0.6996
vn -0.5376 0.4441 0.7168
vn -0.5264 0.4540 0.7189
vn 0.2911 -0.6214 0.7274
vn 0.2918 -0.5989 0.7457
vn 0.2789 -0.6064 0.7446
vn -0.7192 0.0636 0.6919
vn -0.7094 0.0366 0.7038
vn -0.7066 0.0514 0.7057
vn -0.5204 -0.0387 0.8530
vn -0.5231 -0.0869 0.8478
vn -0.5115 -0.0655 0.8568
vn -0.2689 0.7931 0.5465
vn -0.2368 0.8370 0.4934
vn -0.2516 0.8338 0.4914
vn -0.3087 0.8125 0.4945
vn 0.6452 0.5039 0.5743
vn 0.6374 0.5161 0.5722
vn 0.5899 0.5120 0.6244
vn -0.3219 -0.8766 0.3577
vn -0.2482 -0.8946 0.3716
vn -0.3498 -0.8414 0.4119
vn -0.6565 0.5148 0.5514
vn -0.6496 0.5284 0.5467
vn -0.6788 0.5472 0.4897
vn -0.6884 0.5405 0.4838
vn 0.6397 0.6504 0.4095
vn 0.5822 0.7015 0.4111
vn 0.6110 0.6326 0.4758
vn -0.1198 -0.8612 0.4939
vn -0.1084 -0.8666 0.4872
vn -0.0462 -0.8556 0.5155
vn -0.8391 0.0217 0.5435
vn -0.8646 0.0770 0.4965
vn -0.8690 0.0705 0.4898
vn -0.8714 0.0019 0.4906
vn 0.5155 -0.6977 0.4974
vn 0.5740 -0.6486 0.4998
vn 0.4934 -0.6648 0.5609
vn 0.6253 -0.6018 0.4969
vn 0.6549 -0.5414 0.5272
vn 0.5670 -0.6228 0.5391
vn 0.2283 0.0241 -0.9733
vn 0.2527 -0.0186 -0.9674
vn 0.1900 -0.0433 -0.9808
vn 0.1872 0.0083 -0.9823
vn -0.8004 -0.4260 0.4218
vn -0.7594 -0.4807 0.4385
vn -0.8172 -0.3591 0.4509
vn 0.8825 0.0685 0.4652
vn 0.8620 0.1294 0.4902
vn 0.8768 -0.0053 0.4808
vn -0.4300 -0.7247 0.5385
vn -0.4256 -0.7335 0.5299
vn -0.3655 -0.7321 0.5748
vn 0.8340 -0.5400 -0.1129
vn 0.9297 -0.3623 -0.0656
vn 0.8022 -0.5956 -0.0407
vn -0.6788 -0.4501 -0.5801
vn -0.5575 -0.6172 -0.5553
vn -0.7298 -0.4038 -0.5516
vn 0.9590 0.2122 -0.1878
vn 0.9016 0.4074 -0.1457
vn 0.9793 0.1474 -0.1387
vn 0.0492 -0.9906 -0.1278
vn 0.2494 -0.9651 -0.0799
vn -0.0217 -0.9960 -0.0872
vn 0.1944 -0.0956 -0.9763
vn 0.3061 -0.1857 -0.9337
vn 0.2505 -0.2309 -0.9402
vn -0.4133 -0.1743 -0.8937
vn -0.2949 -0.4011 -0.8673
vn -0.4293 -0.3138 -0.8469
vn -0.2740 -0.3637 -0.8903
vn -0.0320 -0.3909 -0.9199
vn -0.1495 -0.4702 -0.8698
vn 0.1726 0.1361 -0.9755
vn 0.2165 0.2827 -0.9344
vn 0.2713 0.2399 -0.9321
vn -0.0067 -0.1807 -0.9835
vn 0.0040 -0.3265 -0.9452
vn -0.0660 -0.3181 -0.9458
vn -0.0161 -0.3607 -0.9325
vn 0.1790 -0.4337 -0.8831
vn 0.0275 -0.5002 -0.8655
vn -0.1769 0.3725 -0.9110
vn -0.4040 0.3226 -0.8560
vn -0.2926 0.4458 -0.8460
vn 0.2875 0.3786 -0.8798
vn 0.0546 0.5078 -0.8597
vn 0.2032 0.5007 -0.8414
vn 0.1856 -0.4862 -0.8539
vn 0.3674 -0.3078 -0.8777
vn 0.3388 -0.4471 -0.8278
vn -0.0629 0.0005 -0.9980
vn -0.0629 0.0004 -0.9980
vn -0.0577 0.0408 -0.9975
vn -0.0252 -0.0142 -0.9996
vn -0.2883 -0.0977 -0.9525
vn -0.2447 -0.1477 -0.9583
vn -0.2813 -0.1727 -0.9439
vn -0.0856 -0.1231 -0.9887
vn -0.0920 -0.1938 -0.9767
vn -0.1340 -0.1799 -0.9745
vn -0.0326 0.2449 -0.9690
vn -0.0910 0.2174 -0.9718
vn -0.0977 0.2739 -0.9568
vn 0.0581 -0.1210 -0.9910
vn 0.1114 -0.1471 -0.9828
vn 0.0707 -0.1948 -0.9783
vn 0.0255 0.1430 -0.9894
vn -0.0531 0.1276 -0.9904
vn -0.0151 0.1420 -0.9898
vn 0.0523 -0.0078 -0.9986
vn 0.0565 -0.0479 -0.9973
vn 0.0127 0.0023 -0.9999
vn 0.0522 -0.0078 -0.9986
vn 0.7071 0.7071 -0.0044
vn 0.0183 0.5695 0.8218
vn -0.8623 -0.0181 -0.5061
vn -0.8622 -0.0181 -0.5062
vn -0.7027 -0.0000 0.7115
vn -0.0280 0.9067 -0.4209
vn -0.0076 0.8072 0.5903
vn -0.0077 0.8072 0.5902
vn -0.0077 0.8072 0.5903
vn 0.0040 0.6165 -0.7874
vn 0.0040 0.6165 -0.7873
vn 0.0033 0.6885 0.7252
vn 0.0033 0.6884 0.7253
vn 0.0033 0.6885 0.7253
vn 0.0077 0.8588 -0.5122
vn 0.0077 0.8589 -0.5121
vn 0.0077 0.8589 -0.5122
vn 0.7115 -0.0000 0.7027
vn 0.7114 -0.0000 0.7027
vn 0.7027 -0.0000 -0.7115
vn -0.8959 0.0076 -0.4443
f 1/1/1 2/1/1 3/1/1
f 4/1/2 5/1/2 6/1/2
f 7/1/3 8/1/3 9/1/3
f 10/1/4 11/1/4 12/1/4
f 13/1/5 14/1/5 15/1/5
f 16/1/6 17/1/6 18/1/6
f 19/1/7 20/1/7 21/1/7
f 22/1/8 23/1/8 24/1/8
f 25/1/9 26/1/9 27/1/9
f 28/1/10 29/1/11 30/1/12
f 31/1/13 32/1/13 33/1/13
f 34/1/3 35/1/3 36/1/3
f 36/1/3 37/1/3 38/1/3
f 38/1/3 39/1/3 40/1/3
f 40/1/3 34/1/3 36/1/3
f 36/1/3 38/1/3 40/1/3
f 41/1/14 42/1/15 43/1/16
f 44/1/17 45/1/18 46/1/17
f 47/1/19 48/1/20 49/1/21
f 50/1/22 51/1/23 52/1/24
f 53/1/25 54/1/26 55/1/27
f 56/1/28 57/1/29 58/1/28
f 59/1/30 60/1/31 61/1/32
f 62/1/33 63/1/34 64/1/33
f 65/1/35 66/1/36 67/1/37
f 68/1/38 69/1/39 70/1/40
f 71/1/41 72/1/42 73/1/43
f 74/1/44 75/1/45 76/1/46
f 77/1/47 78/1/48 79/1/49
f 80/1/50 81/1/51 82/1/52
f 83/1/53 84/1/54 85/1/55
f 86/1/56 87/1/57 88/1/58
f 89/1/59 90/1/60 91/1/61
f 92/1/62 93/1/63 94/1/64
f 95/1/65 96/1/66 97/1/67
f 98/1/68 99/1/69 100/1/70
f 101/1/71 102/1/72 103/1/73
f 104/1/74 105/1/75 106/1/76
f 107/1/77 108/1/78 109/1/79
f 110/1/80 111/1/81 112/1/82
f 113/1/83 114/1/84 115/1/85
f 116/1/86 117/1/87 118/1/88
f 119/1/89 120/1/90 121/1/91
f 122/1/92 123/1/93 124/1/94
f 125/1/95 126/1/96 127/1/97
f 128/1/98 129/1/99 130/1/100
f 131/1/101 132/1/102 133/1/103
f 134/1/104 135/1/105 136/1/106
f 137/1/107 138/1/108 139/1/109
f 140/1/110 141/1/111 142/1/112
f 143/1/113 144/1/114 145/1/115
f 146/1/116 147/1/117 148/1/118
f 149/1/119 150/1/120 151/1/121
f 152/1/122 153/1/123 154/1/124
f 155/1/125 156/1/125 157/1/125
f 158/1/126 159/1/126 160/1/126
f 161/1/127 162/1/127 163/1/127
f 164/1/2 165/1/2 166/1/2
f 167/1/128 168/1/128 169/1/128
f 167/1/128 169/1/128 170/1/128
f 167/1/128 171/1/128 172/1/128
f 167/1/128 172/1/128 168/1/128
f 173/1/2 174/1/2 175/1/2
f 173/1/129 175/1/129 176/1/129
f 177/1/130 178/1/130 179/1/130
f 177/1/130 179/1/130 180/1/130
f 175/1/2 181/1/2 166/1/2
f 182/1/131 183/1/131 184/1/131
f 185/1/132 186/1/132 187/1/132
f 6/1/2 174/1/2 173/1/2
f 6/1/2 173/1/2 4/1/2
f 188/1/131 189/1/131 190/1/131
f 188/1/131 190/1/131 191/1/131
f 184/1/133 192/1/133 193/1/133
f 184/1/131 193/1/131 182/1/131
f 194/1/2 195/1/2 196/1/2
f 165/1/2 164/1/2 6/1/2
f 165/1/2 6/1/2 5/1/2
f 197/1/134 198/1/134 199/1/134
f 197/1/1 199/1/1 200/1/1
f 7/1/3 201/1/3 8/1/3
f 3/1/1 2/1/1 202/1/1
f 202/1/1 203/1/1 204/1/1
f 202/1/1 204/1/1 3/1/1
f 171/1/128 205/1/128 206/1/128
f 171/1/128 206/1/128 172/1/128
f 207/1/2 208/1/2 209/1/2
f 207/1/2 209/1/2 210/1/2
f 181/1/2 164/1/2 166/1/2
f 211/1/3 9/1/3 8/1/3
f 212/1/128 213/1/128 214/1/128
f 212/1/128 214/1/128 215/1/128
f 216/1/1 217/1/1 218/1/1
f 216/1/1 218/1/1 219/1/1
f 220/1/130 221/1/130 222/1/130
f 220/1/130 222/1/130 223/1/130
f 224/1/135 225/1/136 226/1/136
f 224/1/135 226/1/136 227/1/137
f 228/1/138 229/1/138 230/1/138
f 231/1/139 232/1/139 233/1/139
f 234/1/140 235/1/140 236/1/140
f 237/1/141 238/1/141 239/1/141
f 240/1/142 241/1/142 242/1/142
f 243/1/143 244/1/143 245/1/143
f 246/1/144 247/1/144 248/1/144
f 249/1/145 250/1/145 251/1/146
f 252/1/147 253/1/148 254/1/149
f 252/1/147 254/1/149 255/1/150
f 256/1/151 257/1/152 258/1/152
f 256/1/151 258/1/152 259/1/153
f 260/1/154 261/1/155 262/1/156
f 263/1/157 264/1/158 265/1/159
f 263/1/157 265/1/159 266/1/160
f 267/1/161 268/1/162 269/1/163
f 270/1/164 271/1/165 272/1/166
f 273/1/167 274/1/168 275/1/169
f 273/1/167 275/1/169 276/1/170
f 277/1/171 278/1/172 279/1/173
f 280/1/174 281/1/175 282/1/176
f 283/1/177 284/1/178 285/1/179
f 286/1/180 287/1/181 288/1/182
f 289/1/183 290/1/184 291/1/185
f 292/1/186 293/1/187 294/1/188
f 292/1/186 294/1/188 295/1/189
f 296/1/190 297/1/191 298/1/192
f 299/1/193 300/1/194 301/1/195
f 302/1/196 303/1/197 304/1/198
f 302/1/196 304/1/198 305/1/199
f 306/1/200 307/1/201 308/1/202
f 309/1/203 310/1/204 311/1/205
f 312/1/206 313/1/207 314/1/208
f 312/1/206 314/1/208 315/1/209
f 316/1/210 317/1/211 318/1/212
f 319/1/213 320/1/214 321/1/215
f 322/1/216 323/1/217 324/1/218
f 322/1/216 324/1/218 325/1/219
f 326/1/220 327/1/221 328/1/222
f 329/1/223 330/1/224 331/1/225
f 332/1/226 333/1/227 334/1/228
f 335/1/229 336/1/230 337/1/231
f 338/1/232 339/1/233 340/1/234
f 341/1/235 342/1/236 343/1/237
f 344/1/238 345/1/239 346/1/240
f 347/1/241 348/1/242 349/1/243
f 350/1/244 351/1/245 352/1/246
f 353/1/247 354/1/248 355/1/249
f 356/1/250 357/1/251 358/1/252
f 359/1/253 360/1/254 361/1/255
f 362/1/256 363/1/257 364/1/258
f 365/1/259 366/1/260 367/1/261
f 368/1/262 369/1/263 370/1/264
f 371/1/265 372/1/266 373/1/267
f 374/1/268 375/1/269 376/1/270
f 374/1/268 376/1/270 377/1/271
f 378/1/272 379/1/273 380/1/274
f 381/1/275 382/1/276 383/1/277
f 384/1/278 385/1/279 386/1/280
f 387/1/281 388/1/282 389/1/283
f 390/1/284 391/1/285 392/1/286
f 393/1/287 394/1/288 395/1/289
f 393/1/287 395/1/289 396/1/290
f 397/1/1 398/1/1 399/1/1
f 397/1/1 399/1/1 400/1/1
f 401/1/128 402/1/128 403/1/128
f 401/1/128 403/1/128 404/1/128
f 405/1/1 406/1/1 407/1/1
f 405/1/1 407/1/1 408/1/1
f 409/1/2 410/1/2 411/1/2
f 409/1/2 411/1/2 412/1/2
f 413/1/3 414/1/3 415/1/3
f 413/1/3 415/1/3 416/1/3
f 417/1/2 418/1/2 419/1/2
f 417/1/2 419/1/2 420/1/2
f 421/1/3 415/1/3 414/1/3
f 421/1/3 414/1/3 422/1/3
f 418/1/2 409/1/2 412/1/2
f 418/1/2 412/1/2 419/1/2
f 423/1/130 424/1/130 425/1/130
f 423/1/130 425/1/130 426/1/130
f 427/1/131 428/1/131 429/1/131
f 427/1/131 429/1/131 430/1/131
f 431/1/3 413/1/3 416/1/3
f 431/1/3 416/1/3 432/1/3
f 420/1/2 411/1/2 410/1/2
f 420/1/2 410/1/2 417/1/2
f 433/1/130 434/1/130 435/1/130
f 433/1/130 435/1/130 436/1/130
f 437/1/131 438/1/131 439/1/131
f 437/1/131 439/1/131 440/1/131
f 432/1/3 421/1/3 422/1/3
f 432/1/3 422/1/3 431/1/3
f 441/1/128 442/1/128 443/1/128
f 441/1/128 443/1/128 444/1/128
f 445/1/130 446/1/130 447/1/130
f 445/1/130 447/1/130 448/1/130
f 449/1/3 450/1/3 451/1/3
f 449/1/3 451/1/3 452/1/3
f 453/1/131 454/1/131 455/1/131
f 453/1/131 455/1/131 456/1/131
f 457/1/1 458/1/1 459/1/1
f 457/1/1 459/1/1 460/1/1
f 461/1/128 462/1/128 463/1/128
f 461/1/128 463/1/128 464/1/128
f 465/1/291 466/1/291 467/1/291
f 465/1/291 467/1/291 468/1/291
f 469/1/292 470/1/292 471/1/292
f 469/1/292 471/1/292 472/1/292
f 473/1/293 474/1/293 475/1/294
f 473/1/293 475/1/294 476/1/293
f 477/1/295 478/1/295 479/1/295
f 480/1/296 481/1/296 482/1/296
f 480/1/296 482/1/296 483/1/296
f 484/1/297 485/1/298 486/1/298
f 484/1/297 486/1/298 487/1/299
f 488/1/300 489/1/301 490/1/301
f 488/1/300 490/1/301 491/1/301
f 492/1/302 493/1/303 494/1/304
f 492/1/302 494/1/304 495/1/302
f 496/1/305 497/1/306 498/1/307
f 496/1/305 498/1/307 499/1/305
f 500/1/308 501/1/308 502/1/308
f 500/1/309 502/1/309 503/1/309
f 504/1/310 505/1/310 506/1/310
f 504/1/310 506/1/310 507/1/310
f 508/1/311 509/1/311 510/1/311
f 478/1/295 477/1/295 511/1/295
