v 6.158696 0.000000 41.886494
v 6.058463 0.000000 25.653088
v 6.058463 -0.242642 25.653088
v 6.158696 -0.242642 41.886494
v 6.327412 0.000000 -19.184940
v 6.255293 0.000000 -18.956387
v 6.255293 -0.029830 -18.956387
v 6.327412 -0.029830 -19.184940
v 8.348450 0.000000 -21.655064
v 8.130986 0.000000 -21.511391
v 8.130986 -0.029830 -21.511391
v 8.348450 -0.029830 -21.655064
v 11.408933 0.000000 -22.831524
v 17.882519 0.000000 -22.871498
v 17.882519 -0.242642 -22.871498
v 11.408934 -0.242642 -22.831524
v 6.094147 0.000000 -17.774755
v 6.094217 0.000000 -17.783428
v 6.094217 -0.029830 -17.783428
v 6.094147 -0.029830 -17.774755
v 6.255293 0.000000 -18.956387
v 6.196344 0.000000 -18.725056
v 6.196344 -0.029830 -18.725056
v 6.255293 -0.029830 -18.956387
v 5.790275 0.000000 -17.781551
v 5.790275 -0.242642 -17.781551
v 37.465546 0.000000 -22.992413
v 37.465546 -0.242642 -22.992413
v 5.790275 -0.242642 -17.781551
v 5.790275 0.000000 -17.781551
v 5.795958 0.000000 -18.035610
v 5.795958 -0.242642 -18.035610
v 5.795958 -0.242642 -18.035610
v 5.795958 0.000000 -18.035610
v 5.816128 0.000000 -18.289101
v 5.816128 -0.242642 -18.289101
v 5.816128 -0.242642 -18.289101
v 5.816128 0.000000 -18.289101
v 5.850736 0.000000 -18.541378
v 5.850736 -0.242642 -18.541378
v 5.850736 -0.242642 -18.541378
v 5.850736 0.000000 -18.541378
v 5.899690 0.000000 -18.791794
v 5.899690 -0.242642 -18.791794
v 5.899690 -0.242642 -18.791794
v 5.899690 0.000000 -18.791794
v 5.962865 0.000000 -19.039711
v 5.962865 -0.242642 -19.039711
v 5.962865 -0.242642 -19.039711
v 5.962865 0.000000 -19.039711
v 6.040101 0.000000 -19.284485
v 6.040101 -0.242642 -19.284485
v 6.040101 -0.242642 -19.284485
v 6.040101 0.000000 -19.284485
v 6.131197 0.000000 -19.525490
v 6.131197 -0.242642 -19.525490
v 6.131197 -0.242642 -19.525490
v 6.131197 0.000000 -19.525490
v 6.235921 0.000000 -19.762108
v 6.235921 -0.242642 -19.762108
v 6.235921 -0.242642 -19.762108
v 6.235921 0.000000 -19.762108
v 6.354004 0.000000 -19.993732
v 6.354004 -0.242642 -19.993732
v 6.354004 -0.242642 -19.993732
v 6.354004 0.000000 -19.993732
v 6.485141 0.000000 -20.219769
v 6.485142 -0.242642 -20.219769
v 6.485142 -0.242642 -20.219769
v 6.485141 0.000000 -20.219769
v 6.628998 0.000000 -20.439632
v 6.628998 -0.242642 -20.439632
v 6.628998 -0.242642 -20.439632
v 6.628998 0.000000 -20.439632
v 6.785204 0.000000 -20.652767
v 6.785204 -0.242642 -20.652767
v 6.785204 -0.242642 -20.652767
v 6.785204 0.000000 -20.652767
v 6.953359 0.000000 -20.858616
v 6.953359 -0.242642 -20.858616
v 6.953359 -0.242642 -20.858616
v 6.953359 0.000000 -20.858616
v 7.133030 0.000000 -21.056660
v 7.133031 -0.242642 -21.056660
v 7.133031 -0.242642 -21.056660
v 7.133030 0.000000 -21.056660
v 7.323758 0.000000 -21.246384
v 7.323758 -0.242642 -21.246384
v 7.323758 -0.242642 -21.246384
v 7.323758 0.000000 -21.246384
v 7.525051 0.000000 -21.427303
v 7.525051 -0.242642 -21.427303
v 7.525051 -0.242642 -21.427303
v 7.525051 0.000000 -21.427303
v 7.736393 0.000000 -21.598953
v 7.736393 -0.242642 -21.598953
v 7.736393 -0.242642 -21.598953
v 7.736393 0.000000 -21.598953
v 7.957243 0.000000 -21.760895
v 7.957243 -0.242642 -21.760895
v 7.957243 -0.242642 -21.760895
v 7.957243 0.000000 -21.760895
v 8.187033 0.000000 -21.912708
v 8.187033 -0.242642 -21.912708
v 8.187033 -0.242642 -21.912708
v 8.187033 0.000000 -21.912708
v 8.425172 0.000000 -22.054008
v 8.425173 -0.242642 -22.054008
v 8.425173 -0.242642 -22.054008
v 8.425172 0.000000 -22.054008
v 8.671050 0.000000 -22.184433
v 8.671051 -0.242642 -22.184433
v 8.671051 -0.242642 -22.184433
v 8.671050 0.000000 -22.184433
v 8.924036 0.000000 -22.303642
v 8.924036 -0.242642 -22.303642
v 8.924036 -0.242642 -22.303642
v 8.924036 0.000000 -22.303642
v 9.183480 0.000000 -22.411335
v 9.183480 -0.242642 -22.411335
v 9.183480 -0.242642 -22.411335
v 9.183480 0.000000 -22.411335
v 9.448716 0.000000 -22.507233
v 9.448717 -0.242642 -22.507233
v 9.448717 -0.242642 -22.507233
v 9.448716 0.000000 -22.507233
v 9.719064 0.000000 -22.591087
v 9.719064 -0.242642 -22.591087
v 9.719064 -0.242642 -22.591087
v 9.719064 0.000000 -22.591087
v 9.993829 0.000000 -22.662685
v 9.993829 -0.242642 -22.662685
v 9.993829 -0.242642 -22.662685
v 9.993829 0.000000 -22.662685
v 10.272305 0.000000 -22.721844
v 10.272306 -0.242642 -22.721844
v 10.272306 -0.242642 -22.721844
v 10.272305 0.000000 -22.721844
v 10.553780 0.000000 -22.768410
v 10.553781 -0.242642 -22.768410
v 10.553781 -0.242642 -22.768410
v 10.553780 0.000000 -22.768410
v 10.837529 0.000000 -22.802265
v 10.837529 -0.242642 -22.802265
v 10.837529 -0.242642 -22.802265
v 10.837529 0.000000 -22.802265
v 11.122824 0.000000 -22.823322
v 11.122824 -0.242642 -22.823322
v 11.122824 -0.242642 -22.823322
v 11.122824 0.000000 -22.823322
v 11.408933 0.000000 -22.831524
v 11.408934 -0.242642 -22.831524
v 17.607668 0.000000 -18.158474
v 17.877731 0.000000 25.580109
v 18.181673 0.000000 25.578232
v 17.913486 0.000000 -17.856407
v 37.190689 0.000000 -18.279388
v 37.496510 0.000000 -17.977322
v 17.976089 0.000000 41.509575
v 6.460762 0.000000 41.580677
v 6.158696 0.000000 41.886494
v 18.281906 0.000000 41.811638
v 6.362405 0.000000 25.651211
v 6.058463 0.000000 25.653088
v 6.094217 0.000000 -17.783428
v 5.790275 0.000000 -17.781551
v 37.163479 0.000000 -22.686592
v 37.465546 0.000000 -22.992413
v 17.884396 0.000000 -22.567554
v 17.882519 0.000000 -22.871498
v 6.094147 0.000000 -17.774755
v 6.099636 0.000000 -18.020142
v 5.795958 0.000000 -18.035610
v 5.790275 0.000000 -17.781551
v 6.118433 0.000000 -18.256363
v 5.816128 0.000000 -18.289101
v 6.150691 0.000000 -18.491528
v 5.850736 0.000000 -18.541378
v 6.196344 0.000000 -18.725056
v 5.899690 0.000000 -18.791794
v 6.255293 0.000000 -18.956387
v 5.962865 0.000000 -19.039711
v 6.327412 0.000000 -19.184940
v 6.040101 0.000000 -19.284485
v 6.412541 0.000000 -19.410160
v 6.131197 0.000000 -19.525490
v 6.510493 0.000000 -19.631477
v 6.235921 0.000000 -19.762108
v 6.621047 0.000000 -19.848339
v 6.354004 0.000000 -19.993732
v 6.743952 0.000000 -20.060181
v 6.485141 0.000000 -20.219769
v 6.878923 0.000000 -20.266468
v 6.628998 0.000000 -20.439632
v 7.025643 0.000000 -20.466656
v 6.785204 0.000000 -20.652767
v 7.183766 0.000000 -20.660225
v 6.953359 0.000000 -20.858616
v 7.352908 0.000000 -20.846664
v 7.133030 0.000000 -21.056660
v 7.532659 0.000000 -21.025467
v 7.323758 0.000000 -21.246384
v 7.722576 0.000000 -21.196159
v 7.525051 0.000000 -21.427303
v 7.922185 0.000000 -21.358284
v 7.736393 0.000000 -21.598953
v 8.130986 0.000000 -21.511391
v 7.957243 0.000000 -21.760895
v 8.348450 0.000000 -21.655064
v 8.187033 0.000000 -21.912708
v 8.574021 0.000000 -21.788902
v 8.425172 0.000000 -22.054008
v 8.807121 0.000000 -21.912548
v 8.671050 0.000000 -22.184433
v 9.047147 0.000000 -22.025650
v 8.924036 0.000000 -22.303642
v 9.293475 0.000000 -22.127899
v 9.183480 0.000000 -22.411335
v 9.545464 0.000000 -22.219009
v 9.448716 0.000000 -22.507233
v 9.802452 0.000000 -22.298717
v 9.719064 0.000000 -22.591087
v 10.063767 0.000000 -22.366810
v 9.993829 0.000000 -22.662685
v 10.328720 0.000000 -22.423096
v 10.272305 0.000000 -22.721844
v 10.596612 0.000000 -22.467415
v 10.553780 0.000000 -22.768410
v 10.866734 0.000000 -22.499645
v 10.837529 0.000000 -22.802265
v 11.138372 0.000000 -22.519695
v 11.122824 0.000000 -22.823322
v 11.414228 0.000000 -22.527603
v 11.408933 0.000000 -22.831524
v 6.094217 0.000000 -17.783428
v 6.094147 0.000000 -17.774755
v 5.790275 0.000000 -17.781551
v 17.884396 -0.029830 -22.567554
v 17.607668 -0.029830 -18.158474
v 37.190689 -0.029830 -18.279388
v 37.163479 -0.029830 -22.686592
v 17.877731 -0.029830 25.580109
v 6.362405 -0.029830 25.651211
v 6.460762 -0.029830 41.580677
v 17.976089 -0.029830 41.509575
v 6.094217 -0.029830 -17.783428
v 11.414228 -0.029830 -22.527603
v 11.138372 -0.029830 -22.519695
v 10.866734 -0.029830 -22.499645
v 10.596612 -0.029830 -22.467415
v 10.328720 -0.029830 -22.423096
v 10.063767 -0.029830 -22.366810
v 9.802452 -0.029830 -22.298717
v 9.545464 -0.029830 -22.219009
v 9.293475 -0.029830 -22.127899
v 9.047147 -0.029830 -22.025650
v 8.807121 -0.029830 -21.912548
v 8.574021 -0.029830 -21.788902
v 8.348450 -0.029830 -21.655064
v 8.130986 -0.029830 -21.511391
v 7.922185 -0.029830 -21.358284
v 7.722576 -0.029830 -21.196159
v 7.532659 -0.029830 -21.025467
v 7.352908 -0.029830 -20.846664
v 7.183766 -0.029830 -20.660225
v 7.025643 -0.029830 -20.466656
v 6.878923 -0.029830 -20.266468
v 6.743952 -0.029830 -20.060181
v 6.621047 -0.029830 -19.848339
v 6.510493 -0.029830 -19.631477
v 6.412541 -0.029830 -19.410160
v 6.327412 -0.029830 -19.184940
v 6.255293 -0.029830 -18.956387
v 6.196344 -0.029830 -18.725056
v 6.150691 -0.029830 -18.491528
v 6.118433 -0.029830 -18.256363
v 6.099636 -0.029830 -18.020142
v 6.094147 -0.029830 -17.774755
v 17.884396 0.000000 -22.567554
v 11.414228 0.000000 -22.527603
v 11.414228 -0.029830 -22.527603
v 17.884396 -0.029830 -22.567554
v 8.574021 0.000000 -21.788902
v 8.348450 0.000000 -21.655064
v 8.348450 -0.029830 -21.655064
v 8.574021 -0.029830 -21.788902
v 37.190689 0.000000 -18.279388
v 37.163479 0.000000 -22.686592
v 37.163479 -0.029830 -22.686592
v 37.190689 -0.029830 -18.279388
v 6.412541 0.000000 -19.410160
v 6.327412 0.000000 -19.184940
v 6.327412 -0.029830 -19.184940
v 6.412541 -0.029830 -19.410160
v 8.807121 0.000000 -21.912548
v 8.574021 0.000000 -21.788902
v 8.574021 -0.029830 -21.788902
v 8.807121 -0.029830 -21.912548
v 6.510493 0.000000 -19.631477
v 6.412541 0.000000 -19.410160
v 6.412541 -0.029830 -19.410160
v 6.510493 -0.029830 -19.631477
v 9.047147 0.000000 -22.025650
v 8.807121 0.000000 -21.912548
v 8.807121 -0.029830 -21.912548
v 9.047147 -0.029830 -22.025650
v 6.621047 0.000000 -19.848339
v 6.510493 0.000000 -19.631477
v 6.510493 -0.029830 -19.631477
v 6.621047 -0.029830 -19.848339
v 9.293475 0.000000 -22.127899
v 9.047147 0.000000 -22.025650
v 9.047147 -0.029830 -22.025650
v 9.293475 -0.029830 -22.127899
v 6.743952 0.000000 -20.060181
v 6.621047 0.000000 -19.848339
v 6.621047 -0.029830 -19.848339
v 6.743952 -0.029830 -20.060181
v 6.362405 0.000000 25.651211
v 6.460762 0.000000 41.580677
v 6.460762 -0.029830 41.580677
v 6.362405 -0.029830 25.651211
v 9.545464 0.000000 -22.219009
v 9.293475 0.000000 -22.127899
v 9.293475 -0.029830 -22.127899
v 9.545464 -0.029830 -22.219009
v 6.878923 0.000000 -20.266468
v 6.743952 0.000000 -20.060181
v 6.743952 -0.029830 -20.060181
v 6.878923 -0.029830 -20.266468
v 6.094217 0.000000 -17.783428
v 6.094217 -0.029830 -17.783428
v 9.802452 0.000000 -22.298717
v 9.545464 0.000000 -22.219009
v 9.545464 -0.029830 -22.219009
v 9.802452 -0.029830 -22.298717
v 7.025643 0.000000 -20.466656
v 6.878923 0.000000 -20.266468
v 6.878923 -0.029830 -20.266468
v 7.025643 -0.029830 -20.466656
v 17.877731 0.000000 25.580109
v 17.607668 0.000000 -18.158474
v 17.607668 -0.029830 -18.158474
v 17.877731 -0.029830 25.580109
v 10.063767 0.000000 -22.366810
v 9.802452 0.000000 -22.298717
v 9.802452 -0.029830 -22.298717
v 10.063767 -0.029830 -22.366810
v 7.183766 0.000000 -20.660225
v 7.025643 0.000000 -20.466656
v 7.025643 -0.029830 -20.466656
v 7.183766 -0.029830 -20.660225
v 37.163479 0.000000 -22.686592
v 37.163479 -0.029830 -22.686592
v 10.328720 0.000000 -22.423096
v 10.063767 0.000000 -22.366810
v 10.063767 -0.029830 -22.366810
v 10.328720 -0.029830 -22.423096
v 7.352908 0.000000 -20.846664
v 7.183766 0.000000 -20.660225
v 7.183766 -0.029830 -20.660225
v 7.352908 -0.029830 -20.846664
v 17.607668 0.000000 -18.158474
v 37.190689 0.000000 -18.279388
v 37.190689 -0.029830 -18.279388
v 17.607668 -0.029830 -18.158474
v 6.099636 0.000000 -18.020142
v 6.094147 0.000000 -17.774755
v 6.094147 -0.029830 -17.774755
v 6.099636 -0.029830 -18.020142
v 10.596612 0.000000 -22.467415
v 10.328720 0.000000 -22.423096
v 10.328720 -0.029830 -22.423096
v 10.596612 -0.029830 -22.467415
v 7.532659 0.000000 -21.025467
v 7.352908 0.000000 -20.846664
v 7.352908 -0.029830 -20.846664
v 7.532659 -0.029830 -21.025467
v 6.460762 0.000000 41.580677
v 17.976089 0.000000 41.509575
v 17.976089 -0.029830 41.509575
v 6.460762 -0.029830 41.580677
v 6.118433 0.000000 -18.256363
v 6.099636 0.000000 -18.020142
v 6.099636 -0.029830 -18.020142
v 6.118433 -0.029830 -18.256363
v 10.866734 0.000000 -22.499645
v 10.596612 0.000000 -22.467415
v 10.596612 -0.029830 -22.467415
v 10.866734 -0.029830 -22.499645
v 7.722576 0.000000 -21.196159
v 7.532659 0.000000 -21.025467
v 7.532659 -0.029830 -21.025467
v 7.722576 -0.029830 -21.196159
v 17.976089 0.000000 41.509575
v 17.976089 -0.029830 41.509575
v 6.150691 0.000000 -18.491528
v 6.118433 0.000000 -18.256363
v 6.118433 -0.029830 -18.256363
v 6.150691 -0.029830 -18.491528
v 11.138372 0.000000 -22.519695
v 10.866734 0.000000 -22.499645
v 10.866734 -0.029830 -22.499645
v 11.138372 -0.029830 -22.519695
v 7.922185 0.000000 -21.358284
v 7.722576 0.000000 -21.196159
v 7.722576 -0.029830 -21.196159
v 7.922185 -0.029830 -21.358284
v 6.196344 0.000000 -18.725056
v 6.150691 0.000000 -18.491528
v 6.150691 -0.029830 -18.491528
v 6.196344 -0.029830 -18.725056
v 11.414228 0.000000 -22.527603
v 11.138372 0.000000 -22.519695
v 11.138372 -0.029830 -22.519695
v 11.414228 -0.029830 -22.527603
v 8.130986 0.000000 -21.511391
v 7.922185 0.000000 -21.358284
v 7.922185 -0.029830 -21.358284
v 8.130986 -0.029830 -21.511391
vt 0.503881 1.000000
vt 0.488067 0.183164
vt 0.489223 0.187334
vt 0.397733 0.128932
vt 0.407605 0.130365
vt 0.269064 0.117433
vt 0.000000 0.117433
vt 0.269064 0.117433
vt 0.491232 0.208949
vt 0.491248 0.208789
vt 0.490162 0.191553
vt 0.503881 0.208789
vt 0.503781 0.204162
vt 0.503881 0.204162
vt 0.503480 0.199546
vt 0.503881 0.199546
vt 0.502979 0.194955
vt 0.503881 0.194955
vt 0.502279 0.190399
vt 0.503881 0.190399
vt 0.501383 0.185890
vt 0.503881 0.185890
vt 0.500292 0.181440
vt 0.503881 0.181440
vt 0.499009 0.177060
vt 0.503881 0.177060
vt 0.497538 0.172762
vt 0.503881 0.172762
vt 0.495882 0.168556
vt 0.503881 0.168556
vt 0.494046 0.164454
vt 0.503881 0.164454
vt 0.492034 0.160465
vt 0.503881 0.160465
vt 0.489852 0.156600
vt 0.503881 0.156600
vt 0.487505 0.152869
vt 0.503881 0.152869
vt 0.484999 0.149282
vt 0.503881 0.149282
vt 0.482340 0.145848
vt 0.503881 0.145848
vt 0.430845 0.125814
vt 0.430845 0.117433
vt 0.422018 0.124779
vt 0.422018 0.117433
vt 0.412797 0.123804
vt 0.412797 0.117433
vt 0.403208 0.122891
vt 0.403208 0.117433
vt 0.393274 0.122042
vt 0.393274 0.117433
vt 0.383021 0.121260
vt 0.383021 0.117433
vt 0.372476 0.120545
vt 0.372476 0.117433
vt 0.361666 0.119901
vt 0.361666 0.117433
vt 0.350617 0.119329
vt 0.350617 0.117433
vt 0.339360 0.118830
vt 0.339360 0.117433
vt 0.327922 0.118405
vt 0.327922 0.117433
vt 0.316332 0.118057
vt 0.316332 0.117433
vt 0.304622 0.117784
vt 0.304622 0.117433
vt 0.292820 0.117589
vt 0.292820 0.117433
vt 0.280957 0.117472
vt 0.280957 0.117433
vt 0.000000 0.203252
vt 0.012633 1.000000
vt 0.000000 1.000000
vt 0.000000 0.208789
vt 0.012633 1.000000
vt 0.491248 1.000000
vt 0.000000 0.122970
vt 0.000000 0.122970
vt 0.491528 0.204428
vt 0.491352 0.200106
vt 0.490878 0.195813
vt 0.486695 0.179054
vt 0.485103 0.175011
vt 0.483279 0.171041
vt 0.481202 0.167148
vt 0.478821 0.163328
vt 0.476016 0.159556
vt 0.472441 0.155738
vt 0.466860 0.151500
vt 0.454747 0.145433
vt 0.434209 0.137401
vt 0.418547 0.132595
vt 0.387958 0.127808
vt 0.378039 0.126855
vt 0.367912 0.126027
vt 0.357566 0.125303
vt 0.347012 0.124674
vt 0.336268 0.124134
vt 0.325357 0.123682
vt 0.314305 0.123317
vt 0.303138 0.123038
vt 0.291886 0.122848
vt 0.280577 0.122752
vt 0.269099 0.122765
vt 0.269064 0.117433
vn -1.0000 -0.0000 0.0062
vn 0.9537 -0.0000 0.3009
vn 0.5512 -0.0000 0.8344
vn -0.0062 -0.0000 -1.0000
vn -1.0000 -0.0000 -0.0081
vn 0.9690 -0.0000 0.2469
vn -0.9997 -0.0000 -0.0224
vn -0.9998 -0.0000 -0.0224
vn -0.9968 -0.0000 -0.0793
vn -0.9907 -0.0000 -0.1359
vn -0.9814 -0.0000 -0.1919
vn -0.9690 -0.0000 -0.2469
vn -0.9537 -0.0000 -0.3009
vn -0.9354 -0.0000 -0.3536
vn -0.9144 -0.0000 -0.4047
vn -0.8909 -0.0000 -0.4542
vn -0.8650 -0.0000 -0.5018
vn -0.8368 -0.0000 -0.5475
vn -0.8066 -0.0000 -0.5911
vn -0.7745 -0.0000 -0.6326
vn -0.7406 -0.0000 -0.6719
vn -0.7052 -0.0000 -0.7090
vn -0.6685 -0.0000 -0.7437
vn -0.6305 -0.0000 -0.7762
vn -0.5913 -0.0000 -0.8064
vn -0.5512 -0.0000 -0.8344
vn -0.5103 -0.0000 -0.8600
vn -0.4686 -0.0000 -0.8834
vn -0.4263 -0.0000 -0.9046
vn -0.3834 -0.0000 -0.9236
vn -0.3400 -0.0000 -0.9404
vn -0.2963 -0.0000 -0.9551
vn -0.2522 -0.0000 -0.9677
vn -0.2078 -0.0000 -0.9782
vn -0.1632 -0.0000 -0.9866
vn -0.1185 -0.0000 -0.9930
vn -0.0736 -0.0000 -0.9973
vn -0.0287 -0.0000 -0.9996
vn -0.0000 1.0000 -0.0000
vn -0.0000 -1.0000 -0.0000
vn 0.0062 -0.0000 1.0000
vn 0.5103 -0.0000 0.8600
vn 0.9354 -0.0000 0.3536
vn 0.4686 -0.0000 0.8834
vn 0.9144 -0.0000 0.4047
vn 0.4263 -0.0000 0.9046
vn 0.8909 -0.0000 0.4542
vn 0.3834 -0.0000 0.9236
vn 0.8650 -0.0000 0.5018
vn 1.0000 -0.0000 -0.0062
vn 0.3400 -0.0000 0.9404
vn 0.8368 -0.0000 0.5475
vn 0.2963 -0.0000 0.9551
vn 0.8066 -0.0000 0.5911
vn 0.2522 -0.0000 0.9677
vn 0.7745 -0.0000 0.6326
vn 0.2078 -0.0000 0.9782
vn 0.7406 -0.0000 0.6719
vn 0.9997 -0.0000 0.0224
vn 0.1632 -0.0000 0.9866
vn 0.7052 -0.0000 0.7090
vn 0.9968 -0.0000 0.0793
vn 0.1185 -0.0000 0.9930
vn 0.6685 -0.0000 0.7437
vn 0.9907 -0.0000 0.1359
vn 0.0736 -0.0000 0.9973
vn 0.6305 -0.0000 0.7762
vn 0.9814 -0.0000 0.1919
vn 0.0287 -0.0000 0.9996
vn 0.5913 -0.0000 0.8064
f 1/1/1 2/1/1 3/1/1
f 1/1/1 3/1/1 4/1/1
f 5/2/2 6/3/2 7/3/2
f 5/2/2 7/3/2 8/2/2
f 9/4/3 10/5/3 11/5/3
f 9/4/3 11/5/3 12/4/3
f 13/6/4 14/7/4 15/7/4
f 13/6/4 15/7/4 16/8/4
f 17/9/5 18/10/5 19/10/5
f 17/9/5 19/10/5 20/9/5
f 21/3/6 22/11/6 23/11/6
f 21/3/6 23/11/6 24/3/6
f 2/1/1 25/12/1 26/12/1
f 2/1/1 26/12/1 3/1/1
f 14/7/4 27/7/4 28/7/4
f 14/7/4 28/7/4 15/7/4
f 29/12/7 30/12/7 31/13/7
f 29/12/8 31/13/8 32/14/8
f 33/14/9 34/13/9 35/15/9
f 33/14/9 35/15/9 36/16/9
f 37/16/10 38/15/10 39/17/10
f 37/16/10 39/17/10 40/18/10
f 41/18/11 42/17/11 43/19/11
f 41/18/11 43/19/11 44/20/11
f 45/20/12 46/19/12 47/21/12
f 45/20/12 47/21/12 48/22/12
f 49/22/13 50/21/13 51/23/13
f 49/22/13 51/23/13 52/24/13
f 53/24/14 54/23/14 55/25/14
f 53/24/14 55/25/14 56/26/14
f 57/26/15 58/25/15 59/27/15
f 57/26/15 59/27/15 60/28/15
f 61/28/16 62/27/16 63/29/16
f 61/28/16 63/29/16 64/30/16
f 65/30/17 66/29/17 67/31/17
f 65/30/17 67/31/17 68/32/17
f 69/32/18 70/31/18 71/33/18
f 69/32/18 71/33/18 72/34/18
f 73/34/19 74/33/19 75/35/19
f 73/34/19 75/35/19 76/36/19
f 77/36/20 78/35/20 79/37/20
f 77/36/20 79/37/20 80/38/20
f 81/38/21 82/37/21 83/39/21
f 81/38/21 83/39/21 84/40/21
f 85/40/22 86/39/22 87/41/22
f 85/40/22 87/41/22 88/42/22
f 89/42/23 90/41/23 91/43/23
f 89/42/23 91/43/23 92/44/23
f 93/44/24 94/43/24 95/45/24
f 93/44/24 95/45/24 96/46/24
f 97/46/25 98/45/25 99/47/25
f 97/46/25 99/47/25 100/48/25
f 101/48/26 102/47/26 103/49/26
f 101/48/26 103/49/26 104/50/26
f 105/50/27 106/49/27 107/51/27
f 105/50/27 107/51/27 108/52/27
f 109/52/28 110/51/28 111/53/28
f 109/52/28 111/53/28 112/54/28
f 113/54/29 114/53/29 115/55/29
f 113/54/29 115/55/29 116/56/29
f 117/56/30 118/55/30 119/57/30
f 117/56/30 119/57/30 120/58/30
f 121/58/31 122/57/31 123/59/31
f 121/58/31 123/59/31 124/60/31
f 125/60/32 126/59/32 127/61/32
f 125/60/32 127/61/32 128/62/32
f 129/62/33 130/61/33 131/63/33
f 129/62/33 131/63/33 132/64/33
f 133/64/34 134/63/34 135/65/34
f 133/64/34 135/65/34 136/66/34
f 137/66/35 138/65/35 139/67/35
f 137/66/35 139/67/35 140/68/35
f 141/68/36 142/67/36 143/69/36
f 141/68/36 143/69/36 144/70/36
f 145/70/37 146/69/37 147/71/37
f 145/70/37 147/71/37 148/72/37
f 149/72/38 150/71/38 151/6/38
f 149/72/38 151/6/38 152/8/38
f 153/73/39 154/74/39 155/75/39
f 153/73/39 155/75/39 156/76/39
f 157/73/39 153/73/39 156/76/39
f 157/73/39 156/76/39 158/76/39
f 159/77/39 160/78/39 161/1/39
f 159/77/39 161/1/39 162/75/39
f 154/74/39 159/77/39 162/75/39
f 154/74/39 162/75/39 155/75/39
f 160/78/39 163/78/39 164/1/39
f 160/78/39 164/1/39 161/1/39
f 163/78/39 165/10/39 166/12/39
f 163/78/39 166/12/39 164/1/39
f 167/79/39 157/73/39 158/76/39
f 167/79/39 158/76/39 168/7/39
f 169/80/39 167/79/39 168/7/39
f 169/80/39 168/7/39 170/7/39
f 171/9/39 172/81/39 173/13/39
f 171/9/39 173/13/39 174/12/39
f 172/81/39 175/82/39 176/15/39
f 172/81/39 176/15/39 173/13/39
f 175/82/39 177/83/39 178/17/39
f 175/82/39 178/17/39 176/15/39
f 177/83/39 179/11/39 180/19/39
f 177/83/39 180/19/39 178/17/39
f 179/11/39 181/3/39 182/21/39
f 179/11/39 182/21/39 180/19/39
f 181/3/39 183/2/39 184/23/39
f 181/3/39 184/23/39 182/21/39
f 183/2/39 185/84/39 186/25/39
f 183/2/39 186/25/39 184/23/39
f 185/84/39 187/85/39 188/27/39
f 185/84/39 188/27/39 186/25/39
f 187/85/39 189/86/39 190/29/39
f 187/85/39 190/29/39 188/27/39
f 189/86/39 191/87/39 192/31/39
f 189/86/39 192/31/39 190/29/39
f 191/87/39 193/88/39 194/33/39
f 191/87/39 194/33/39 192/31/39
f 193/88/39 195/89/39 196/35/39
f 193/88/39 196/35/39 194/33/39
f 195/89/39 197/90/39 198/37/39
f 195/89/39 198/37/39 196/35/39
f 197/90/39 199/91/39 200/39/39
f 197/90/39 200/39/39 198/37/39
f 199/91/39 201/92/39 202/41/39
f 199/91/39 202/41/39 200/39/39
f 201/92/39 203/93/39 204/43/39
f 201/92/39 204/43/39 202/41/39
f 203/93/39 205/94/39 206/45/39
f 203/93/39 206/45/39 204/43/39
f 205/94/39 207/5/39 208/47/39
f 205/94/39 208/47/39 206/45/39
f 207/5/39 209/4/39 210/49/39
f 207/5/39 210/49/39 208/47/39
f 209/4/39 211/95/39 212/51/39
f 209/4/39 212/51/39 210/49/39
f 211/95/39 213/96/39 214/53/39
f 211/95/39 214/53/39 212/51/39
f 213/96/39 215/97/39 216/55/39
f 213/96/39 216/55/39 214/53/39
f 215/97/39 217/98/39 218/57/39
f 215/97/39 218/57/39 216/55/39
f 217/98/39 219/99/39 220/59/39
f 217/98/39 220/59/39 218/57/39
f 219/99/39 221/100/39 222/61/39
f 219/99/39 222/61/39 220/59/39
f 221/100/39 223/101/39 224/63/39
f 221/100/39 224/63/39 222/61/39
f 223/101/39 225/102/39 226/65/39
f 223/101/39 226/65/39 224/63/39
f 225/102/39 227/103/39 228/67/39
f 225/102/39 228/67/39 226/65/39
f 227/103/39 229/104/39 230/69/39
f 227/103/39 230/69/39 228/67/39
f 229/104/39 231/105/39 232/71/39
f 229/104/39 232/71/39 230/69/39
f 231/105/39 233/106/39 234/107/39
f 231/105/39 234/107/39 232/71/39
f 235/10/40 236/9/40 237/12/40
f 233/106/39 169/80/39 170/7/39
f 233/106/39 170/7/39 234/107/39
f 238/80/39 239/73/39 240/73/39
f 238/80/39 240/73/39 241/79/39
f 242/74/39 243/78/39 244/78/39
f 242/74/39 244/78/39 245/77/39
f 239/73/39 246/10/39 243/78/39
f 239/73/39 243/78/39 242/74/39
f 239/73/39 238/80/39 247/106/39
f 247/106/39 248/105/39 249/104/39
f 249/104/39 250/103/39 251/102/39
f 251/102/39 252/101/39 253/100/39
f 253/100/39 254/99/39 255/98/39
f 255/98/39 256/97/39 257/96/39
f 257/96/39 258/95/39 259/4/39
f 259/4/39 260/5/39 261/94/39
f 261/94/39 262/93/39 263/92/39
f 263/92/39 264/91/39 265/90/39
f 265/90/39 266/89/39 267/88/39
f 267/88/39 268/87/39 269/86/39
f 269/86/39 270/85/39 271/84/39
f 271/84/39 272/2/39 273/3/39
f 273/3/39 274/11/39 275/83/39
f 275/83/39 276/82/39 277/81/39
f 275/83/39 277/81/39 278/9/39
f 271/84/39 273/3/39 275/83/39
f 267/88/39 269/86/39 271/84/39
f 263/92/39 265/90/39 267/88/39
f 259/4/39 261/94/39 263/92/39
f 255/98/39 257/96/39 259/4/39
f 251/102/39 253/100/39 255/98/39
f 247/106/39 249/104/39 251/102/39
f 246/10/39 239/73/39 247/106/39
f 271/84/39 275/83/39 278/9/39
f 246/10/39 247/106/39 251/102/39
f 267/88/39 271/84/39 278/9/39
f 246/10/39 251/102/39 255/98/39
f 263/92/39 267/88/39 278/9/39
f 246/10/39 255/98/39 259/4/39
f 259/4/39 263/92/39 278/9/39
f 259/4/39 278/9/39 246/10/39
f 279/80/41 280/106/41 281/106/41
f 279/80/41 281/106/41 282/80/41
f 283/95/42 284/4/42 285/4/42
f 283/95/42 285/4/42 286/95/42
f 287/73/1 288/79/1 289/79/1
f 287/73/1 289/79/1 290/73/1
f 291/84/43 292/2/43 293/2/43
f 291/84/43 293/2/43 294/84/43
f 295/96/44 296/95/44 297/95/44
f 295/96/44 297/95/44 298/96/44
f 299/85/45 300/84/45 301/84/45
f 299/85/45 301/84/45 302/85/45
f 303/97/46 304/96/46 305/96/46
f 303/97/46 305/96/46 306/97/46
f 307/86/47 308/85/47 309/85/47
f 307/86/47 309/85/47 310/86/47
f 311/98/48 312/97/48 313/97/48
f 311/98/48 313/97/48 314/98/48
f 315/87/49 316/86/49 317/86/49
f 315/87/49 317/86/49 318/87/49
f 319/78/50 320/78/50 321/78/50
f 319/78/50 321/78/50 322/78/50
f 323/99/51 324/98/51 325/98/51
f 323/99/51 325/98/51 326/99/51
f 327/88/52 328/87/52 329/87/52
f 327/88/52 329/87/52 330/88/52
f 331/10/50 319/78/50 322/78/50
f 331/10/50 322/78/50 332/10/50
f 333/100/53 334/99/53 335/99/53
f 333/100/53 335/99/53 336/100/53
f 337/89/54 338/88/54 339/88/54
f 337/89/54 339/88/54 340/89/54
f 341/74/1 342/73/1 343/73/1
f 341/74/1 343/73/1 344/74/1
f 345/101/55 346/100/55 347/100/55
f 345/101/55 347/100/55 348/101/55
f 349/90/56 350/89/56 351/89/56
f 349/90/56 351/89/56 352/90/56
f 353/79/41 279/80/41 282/80/41
f 353/79/41 282/80/41 354/79/41
f 355/102/57 356/101/57 357/101/57
f 355/102/57 357/101/57 358/102/57
f 359/91/58 360/90/58 361/90/58
f 359/91/58 361/90/58 362/91/58
f 363/73/4 364/73/4 365/73/4
f 363/73/4 365/73/4 366/73/4
f 367/81/59 368/9/59 369/9/59
f 367/81/59 369/9/59 370/81/59
f 371/103/60 372/102/60 373/102/60
f 371/103/60 373/102/60 374/103/60
f 375/92/61 376/91/61 377/91/61
f 375/92/61 377/91/61 378/92/61
f 379/78/4 380/77/4 381/77/4
f 379/78/4 381/77/4 382/78/4
f 383/82/62 384/81/62 385/81/62
f 383/82/62 385/81/62 386/82/62
f 387/104/63 388/103/63 389/103/63
f 387/104/63 389/103/63 390/104/63
f 391/93/64 392/92/64 393/92/64
f 391/93/64 393/92/64 394/93/64
f 395/77/1 341/74/1 344/74/1
f 395/77/1 344/74/1 396/77/1
f 397/83/65 398/82/65 399/82/65
f 397/83/65 399/82/65 400/83/65
f 401/105/66 402/104/66 403/104/66
f 401/105/66 403/104/66 404/105/66
f 405/94/67 406/93/67 407/93/67
f 405/94/67 407/93/67 408/94/67
f 409/11/68 410/83/68 411/83/68
f 409/11/68 411/83/68 412/11/68
f 413/106/69 414/105/69 415/105/69
f 413/106/69 415/105/69 416/106/69
f 417/5/70 418/94/70 419/94/70
f 417/5/70 419/94/70 420/5/70
