v 22.618406 2.975639 -19.889591
v 22.615086 2.975639 -20.427341
v 23.853642 2.975639 -20.637781
v 23.858490 2.975639 -19.852577
v 21.861250 2.975639 -20.422686
v 21.236298 2.975639 -20.621620
v 21.864569 2.975639 -19.884935
v 21.241146 2.975639 -19.836416
v 22.618406 4.284336 -19.889591
v 22.615086 4.284336 -20.427341
v 23.853642 4.284336 -20.637781
v 23.858490 4.284336 -19.852577
v 21.861250 4.284336 -20.422686
v 21.236298 4.284336 -20.621620
v 21.864569 4.284336 -19.884935
v 21.241146 4.284336 -19.836416
v 22.618406 5.658689 -19.889591
v 22.615086 5.658689 -20.427341
v 23.853642 5.658689 -20.637781
v 23.858490 5.658689 -19.852577
v 21.861250 5.658689 -20.422686
v 21.236298 5.658689 -20.621620
v 21.864569 5.658689 -19.884935
v 21.241146 5.658689 -19.836416
v 22.618406 6.967386 -19.889591
v 22.615086 6.967386 -20.427341
v 23.853642 6.967386 -20.637781
v 23.858490 6.967386 -19.852577
v 21.861250 6.967386 -20.422686
v 21.236298 6.967386 -20.621620
v 21.864569 6.967386 -19.884935
v 21.241146 6.967386 -19.836416
v 22.618406 8.341738 -19.889591
v 22.615086 8.341738 -20.427341
v 23.853642 8.341738 -20.637781
v 23.858490 8.341738 -19.852577
v 21.861250 8.341738 -20.422686
v 21.236298 8.341738 -20.621620
v 21.864569 8.341738 -19.884935
v 21.241146 8.341738 -19.836416
v 22.618406 9.650434 -19.889591
v 22.615086 9.650434 -20.427341
v 23.853642 9.650434 -20.637781
v 23.858490 9.650434 -19.852577
v 21.861250 9.650434 -20.422686
v 21.236298 9.650434 -20.621620
v 21.864569 9.650434 -19.884935
v 21.241146 9.650434 -19.836416
v 22.618406 11.024786 -19.889591
v 22.615086 11.024786 -20.427341
v 23.853642 11.024786 -20.637781
v 23.858490 11.024786 -19.852577
v 21.861250 11.024786 -20.422686
v 21.236298 11.024786 -20.621620
v 21.864569 11.024786 -19.884935
v 21.241146 11.024786 -19.836416
v 22.618406 12.333485 -19.889591
v 22.615086 12.333485 -20.427341
v 23.853642 12.333485 -20.637781
v 23.858490 12.333485 -19.852577
v 21.861250 12.333485 -20.422686
v 21.236298 12.333485 -20.621620
v 21.864569 12.333485 -19.884935
v 21.241146 12.333485 -19.836416
vt 0.256902 0.226642
vt 0.191347 0.226642
vt 0.166626 0.000000
vt 0.262347 0.000000
vt 0.191347 0.364446
vt 0.166626 0.478461
vt 0.256902 0.364446
vt 0.262347 0.478461
vt 0.352623 0.226642
vt 0.287068 0.226642
vt 0.358069 0.000000
vt 0.287068 0.364446
vt 0.352623 0.364446
vt 0.358069 0.478461
vn -0.0000 -1.0000 -0.0000
f 1/1/1 2/2/1 3/3/1
f 1/1/1 3/3/1 4/4/1
f 2/2/1 5/5/1 6/6/1
f 2/2/1 6/6/1 3/3/1
f 5/5/1 7/7/1 8/8/1
f 5/5/1 8/8/1 6/6/1
f 7/7/1 1/1/1 4/4/1
f 7/7/1 4/4/1 8/8/1
f 9/9/1 10/10/1 11/4/1
f 9/9/1 11/4/1 12/11/1
f 10/10/1 13/12/1 14/8/1
f 10/10/1 14/8/1 11/4/1
f 13/12/1 15/13/1 16/14/1
f 13/12/1 16/14/1 14/8/1
f 15/13/1 9/9/1 12/11/1
f 15/13/1 12/11/1 16/14/1
f 17/1/1 18/2/1 19/3/1
f 17/1/1 19/3/1 20/4/1
f 18/2/1 21/5/1 22/6/1
f 18/2/1 22/6/1 19/3/1
f 21/5/1 23/7/1 24/8/1
f 21/5/1 24/8/1 22/6/1
f 23/7/1 17/1/1 20/4/1
f 23/7/1 20/4/1 24/8/1
f 25/9/1 26/10/1 27/4/1
f 25/9/1 27/4/1 28/11/1
f 26/10/1 29/12/1 30/8/1
f 26/10/1 30/8/1 27/4/1
f 29/12/1 31/13/1 32/14/1
f 29/12/1 32/14/1 30/8/1
f 31/13/1 25/9/1 28/11/1
f 31/13/1 28/11/1 32/14/1
f 33/1/1 34/2/1 35/3/1
f 33/1/1 35/3/1 36/4/1
f 34/2/1 37/5/1 38/6/1
f 34/2/1 38/6/1 35/3/1
f 37/5/1 39/7/1 40/8/1
f 37/5/1 40/8/1 38/6/1
f 39/7/1 33/1/1 36/4/1
f 39/7/1 36/4/1 40/8/1
f 41/9/1 42/10/1 43/4/1
f 41/9/1 43/4/1 44/11/1
f 42/10/1 45/12/1 46/8/1
f 42/10/1 46/8/1 43/4/1
f 45/12/1 47/13/1 48/14/1
f 45/12/1 48/14/1 46/8/1
f 47/13/1 41/9/1 44/11/1
f 47/13/1 44/11/1 48/14/1
f 49/1/1 50/2/1 51/3/1
f 49/1/1 51/3/1 52/4/1
f 50/2/1 53/5/1 54/6/1
f 50/2/1 54/6/1 51/3/1
f 53/5/1 55/7/1 56/8/1
f 53/5/1 56/8/1 54/6/1
f 55/7/1 49/1/1 52/4/1
f 55/7/1 52/4/1 56/8/1
f 57/9/1 58/10/1 59/4/1
f 57/9/1 59/4/1 60/11/1
f 58/10/1 61/12/1 62/8/1
f 58/10/1 62/8/1 59/4/1
f 61/12/1 63/13/1 64/14/1
f 61/12/1 64/14/1 62/8/1
f 63/13/1 57/9/1 60/11/1
f 63/13/1 60/11/1 64/14/1
