v 7.848763 0.001477 -8.254508
v 7.093902 0.001477 -8.249847
v 7.098563 0.001477 -7.494987
v 7.853423 0.001477 -7.499648
v 7.263702 0.001477 19.251247
v 7.268363 0.001477 20.006107
v 8.023224 0.001477 20.001448
v 8.018563 0.001477 19.246586
vt 0.503535 0.355466
vt 0.503535 0.000000
vt 0.859001 0.000000
vt 0.859001 0.355466
vt 0.503535 0.355466
vt 0.503535 0.000000
vt 0.859001 0.000000
vt 0.859001 0.355466
vn -0.0000 1.0000 -0.0000
vn -0.0000 1.0000 -0.0000
f 1/1/1 2/2/1 3/3/1
f 1/1/1 3/3/1 4/4/1
f 5/5/2 6/6/2 7/7/2
f 5/5/2 7/7/2 8/8/2
