v 7.404958 -0.242642 -21.174423
v -6.177136 -0.242642 -22.722939
v -6.146171 -0.242642 -17.707851
v 5.790275 -0.242642 -17.781551
v -5.877983 -0.242642 25.726788
v 6.058463 -0.242642 25.653088
v -5.777750 -0.242642 41.960194
v 6.158696 -0.242642 41.886494
v 17.842714 -0.242642 -29.318153
v 5.719504 -0.242642 -29.243298
v 7.404958 -0.242642 -21.174423
v 17.882519 -0.242642 -22.871498
v 37.465546 -0.242642 -22.992413
v 37.425739 -0.242642 -29.439068
v 5.719504 -0.242642 -29.243298
v -6.216942 -0.242642 -29.169598
vt 0.422758 0.113581
vt 0.613564 0.090632
vt 0.613564 0.161138
vt 0.445752 0.161138
vt 0.613564 0.771778
vt 0.445752 0.771778
vt 0.613564 1.000000
vt 0.445752 1.000000
vt 0.275314 0.000000
vt 0.445752 0.000000
vt 0.275314 0.090632
vt 0.000000 0.090632
vt 0.000000 0.000000
vt 0.613564 0.000000
vn -0.0000 1.0000 -0.0000
f 1/1/1 2/2/1 3/3/1
f 1/1/1 3/3/1 4/4/1
f 4/4/1 3/3/1 5/5/1
f 4/4/1 5/5/1 6/6/1
f 6/6/1 5/5/1 7/7/1
f 6/6/1 7/7/1 8/8/1
f 9/9/1 10/10/1 11/1/1
f 9/9/1 11/1/1 12/11/1
f 9/9/1 12/11/1 13/12/1
f 9/9/1 13/12/1 14/13/1
f 15/10/1 16/14/1 2/2/1
f 15/10/1 2/2/1 1/1/1
