v 11.348162 6.092531 -27.730186
v 11.343418 6.570890 -27.728703
v 11.898406 6.570890 -27.804111
v 11.898406 6.092530 -27.804111
v 11.276056 6.570890 -27.637074
v 11.276277 6.092531 -27.641998
v 11.284990 6.092530 -27.557337
v 11.284990 6.570890 -27.557337
v 11.274981 6.092530 -27.556019
v 11.274981 6.570890 -27.556019
v 11.310742 6.092531 -27.710335
v 11.308261 6.570890 -27.708176
v 11.287169 6.092531 -27.680935
v 11.285715 6.570890 -27.678013
v 11.630667 6.534015 -27.710951
v 11.593160 6.545491 -27.706017
v 11.477639 6.161398 -27.690821
v 11.307214 6.114941 -27.730000
v 11.307214 6.545544 -27.730000
v 11.853836 6.545544 -27.801903
v 11.853836 6.114941 -27.801905
v 11.369436 6.424878 -27.676588
v 11.358058 6.387048 -27.675091
v 11.477639 6.161398 -27.690821
v 11.554154 6.146047 -27.700886
v 11.593160 6.149921 -27.706017
v 11.554154 6.549366 -27.700886
v 11.593160 6.545491 -27.706017
v 11.754091 6.347706 -27.727186
v 11.750250 6.387048 -27.726681
v 11.738872 6.424878 -27.725183
v 11.477639 6.161398 -27.690821
v 11.750250 6.387048 -27.726681
v 11.738872 6.424878 -27.725183
v 11.720396 6.459742 -27.722754
v 11.720396 6.459742 -27.722754
v 11.695531 6.490301 -27.719482
v 11.695531 6.490301 -27.719482
v 11.669698 6.511685 -27.716084
v 11.669698 6.511685 -27.716084
v 11.630667 6.534015 -27.710951
v 11.515148 6.149921 -27.695755
v 11.554154 6.146047 -27.700886
v 11.477639 6.161398 -27.690821
v 11.354217 6.347706 -27.674585
v 11.358058 6.308364 -27.675091
v 11.369436 6.270535 -27.676588
v 11.369436 6.270535 -27.676588
v 11.387912 6.235670 -27.679018
v 11.412777 6.205112 -27.682289
v 11.443074 6.180033 -27.686274
v 11.358058 6.387048 -27.675091
v 11.354217 6.347706 -27.674585
v 11.515148 6.545491 -27.695755
v 11.515148 6.545491 -27.695755
v 11.477641 6.534015 -27.690821
v 11.477641 6.534015 -27.690821
v 11.438608 6.511688 -27.685686
v 11.438608 6.511688 -27.685686
v 11.412777 6.490301 -27.682289
v 11.412777 6.490301 -27.682289
v 11.387912 6.459742 -27.679018
v 11.387912 6.459742 -27.679018
v 11.369436 6.424878 -27.676588
v 11.630667 6.161397 -27.710951
v 11.665234 6.180033 -27.715496
v 11.695531 6.205112 -27.719482
v 11.720396 6.235670 -27.722754
v 11.738872 6.270535 -27.725183
v 11.750250 6.308364 -27.726681
v 1.065036 2.826832 -27.245975
v 1.060131 3.305192 -27.245159
v 1.620217 3.305192 -27.243336
v 1.620217 2.826832 -27.243336
v 0.980782 3.305192 -27.163694
v 0.981678 2.826832 -27.168539
v 0.978637 2.826832 -27.083487
v 0.978637 3.305192 -27.083485
v 0.968543 2.826832 -27.083561
v 0.968543 3.305192 -27.083561
v 1.025237 2.826832 -27.231472
v 1.022480 3.305192 -27.229675
v 0.997836 2.826832 -27.205605
v 0.995992 3.305192 -27.202909
v 1.342191 3.268317 -27.187977
v 1.304362 3.279792 -27.188261
v 1.187852 3.268317 -27.189137
v 1.024452 2.849243 -27.251438
v 1.024452 3.279845 -27.251438
v 1.575768 3.279845 -27.247295
v 1.575768 2.849243 -27.247295
v 1.187852 2.895699 -27.189137
v 1.225680 2.884223 -27.188852
v 1.078717 3.159179 -27.189957
v 1.067242 3.121349 -27.190042
v 1.265021 2.880348 -27.188557
v 1.304362 2.884223 -27.188261
v 1.265021 3.283667 -27.188557
v 1.466675 3.082008 -27.187042
v 1.462800 3.121349 -27.187071
v 1.451325 3.159179 -27.187157
v 1.432690 3.194044 -27.187298
v 1.407612 3.224602 -27.187485
v 1.381557 3.245986 -27.187681
v 1.063367 3.082008 -27.190071
v 1.067242 3.042666 -27.190042
v 1.078717 3.004836 -27.189957
v 1.097352 2.969972 -27.189816
v 1.122430 2.939413 -27.189629
v 1.152988 2.914334 -27.189398
v 1.225681 3.279792 -27.188852
v 1.148483 3.245989 -27.189432
v 1.122431 3.224602 -27.189629
v 1.187852 3.268317 -27.189137
v 1.122431 3.224602 -27.189629
v 1.097352 3.194044 -27.189816
v 1.187852 3.268317 -27.189137
v 1.097352 3.194044 -27.189816
v 1.342191 2.895699 -27.187977
v 1.377054 2.914334 -27.187716
v 1.407612 2.939413 -27.187485
v 1.432690 2.969972 -27.187298
v 1.451325 3.004836 -27.187157
v 1.462800 3.042666 -27.187071
v 11.376743 6.040521 22.172466
v 11.375195 6.518880 22.167744
v 11.458194 6.518880 22.721649
v 11.458195 6.040520 22.721649
v 11.282654 6.518880 22.101643
v 11.287580 6.040521 22.101795
v 11.203046 6.040520 22.111668
v 11.203046 6.518880 22.111668
v 11.201591 6.040520 22.101677
v 11.201591 6.518880 22.101677
v 11.356381 6.040521 22.135323
v 11.354189 6.518880 22.132872
v 11.326662 6.040521 22.112154
v 11.323721 6.518880 22.110741
v 11.361377 6.482005 22.455208
v 11.355930 6.493481 22.417774
v 11.339154 6.109388 22.302471
v 11.375998 6.062931 22.131527
v 11.375998 6.493534 22.131527
v 11.455377 6.493534 22.677113
v 11.455378 6.062931 22.677113
v 11.323442 6.372868 22.194473
v 11.321790 6.335038 22.183117
v 11.339154 6.109388 22.302471
v 11.350266 6.094037 22.378841
v 11.355930 6.097911 22.417774
v 11.350266 6.497355 22.378841
v 11.355930 6.493481 22.417774
v 11.379300 6.295696 22.578400
v 11.378742 6.335038 22.574566
v 11.377090 6.372868 22.563210
v 11.339154 6.109388 22.302471
v 11.378742 6.335038 22.574566
v 11.377090 6.372868 22.563210
v 11.374407 6.407732 22.544769
v 11.374407 6.407732 22.544769
v 11.370796 6.438291 22.519951
v 11.370796 6.438291 22.519951
v 11.367044 6.459675 22.494165
v 11.367044 6.459675 22.494165
v 11.361377 6.482005 22.455208
v 11.344603 6.097911 22.339909
v 11.350266 6.094037 22.378841
v 11.339154 6.109388 22.302471
v 11.321232 6.295696 22.179283
v 11.321790 6.256354 22.183117
v 11.323442 6.218524 22.194473
v 11.323442 6.218524 22.194473
v 11.326125 6.183660 22.212914
v 11.329736 6.153101 22.237732
v 11.334135 6.128023 22.267971
v 11.321790 6.335038 22.183117
v 11.321232 6.295696 22.179283
v 11.344602 6.493481 22.339909
v 11.344602 6.493481 22.339909
v 11.339155 6.482005 22.302473
v 11.339155 6.482005 22.302473
v 11.333487 6.459678 22.263515
v 11.333487 6.459678 22.263515
v 11.329736 6.438291 22.237732
v 11.329736 6.438291 22.237732
v 11.326125 6.407732 22.212914
v 11.326125 6.407732 22.212914
v 11.323442 6.372868 22.194473
v 11.361377 6.109387 22.455208
v 11.366396 6.128023 22.489712
v 11.370796 6.153101 22.519951
v 11.374407 6.183660 22.544769
v 11.377090 6.218524 22.563210
v 11.378742 6.256354 22.574566
v 10.751827 2.774822 11.896931
v 10.750944 3.253182 11.892036
v 10.756788 3.253182 12.452095
v 10.756788 2.774822 12.452095
v 10.668402 3.253182 11.813810
v 10.673258 2.774822 11.814640
v 10.588171 2.774822 11.812763
v 10.588170 3.253182 11.812763
v 10.588108 2.774822 11.802669
v 10.588108 3.253182 11.802669
v 10.736782 2.774822 11.857333
v 10.734947 3.253182 11.854601
v 10.710542 2.774822 11.830289
v 10.707821 3.253182 11.828482
v 10.697628 3.216307 12.174852
v 10.697395 3.227782 12.137024
v 10.696675 3.216307 12.020513
v 10.756734 2.797233 11.856276
v 10.756733 3.227836 11.856276
v 10.760138 3.227836 12.407596
v 10.760138 2.797233 12.407596
v 10.696675 2.843689 12.020512
v 10.696909 2.832213 12.058341
v 10.696001 3.107170 11.911377
v 10.695930 3.069340 11.899901
v 10.697151 2.828338 12.097682
v 10.697395 2.832213 12.137024
v 10.697151 3.231657 12.097682
v 10.698397 3.029998 12.299338
v 10.698373 3.069340 12.295464
v 10.698302 3.107170 12.283988
v 10.698187 3.142034 12.265353
v 10.698032 3.172593 12.240274
v 10.697871 3.193976 12.214219
v 10.695907 3.029998 11.896027
v 10.695930 2.990656 11.899901
v 10.696001 2.952826 11.911377
v 10.696116 2.917962 11.930012
v 10.696272 2.887403 11.955091
v 10.696461 2.862324 11.985648
v 10.696909 3.227782 12.058341
v 10.696432 3.193979 11.981143
v 10.696272 3.172593 11.955091
v 10.696675 3.216307 12.020513
v 10.696272 3.172593 11.955091
v 10.696116 3.142034 11.930012
v 10.696675 3.216307 12.020513
v 10.696116 3.142034 11.930012
v 10.697628 2.843689 12.174852
v 10.697844 2.862324 12.209716
v 10.698032 2.887403 12.240274
v 10.698187 2.917962 12.265353
v 10.698302 2.952826 12.283988
v 10.698373 2.990656 12.295464
v 10.748665 2.774822 0.728946
v 10.747783 3.253182 0.724052
v 10.753626 3.253182 1.284109
v 10.753626 2.774822 1.284109
v 10.665243 3.253182 0.645825
v 10.670099 2.774822 0.646654
v 10.585009 2.774822 0.644777
v 10.585008 3.253182 0.644777
v 10.584946 2.774822 0.634683
v 10.584946 3.253182 0.634683
v 10.733620 2.774822 0.689348
v 10.731785 3.253182 0.686616
v 10.707378 2.774822 0.662304
v 10.704659 3.253182 0.660497
v 10.694466 3.216307 1.006867
v 10.694233 3.227782 0.969038
v 10.692953 3.142037 0.762029
v 10.753572 2.797233 0.688289
v 10.753571 3.227836 0.688289
v 10.756975 3.227836 1.239610
v 10.756975 2.797233 1.239610
v 10.693513 2.843689 0.852527
v 10.693747 2.832213 0.890355
v 10.692839 3.107170 0.743391
v 10.692768 3.069340 0.731915
v 10.693989 2.828338 0.929696
v 10.694233 2.832213 0.969038
v 10.693989 3.231657 0.929696
v 10.695234 3.029998 1.131352
v 10.695210 3.069340 1.127479
v 10.695140 3.107170 1.116002
v 10.695024 3.142034 1.097367
v 10.694870 3.172593 1.072289
v 10.694709 3.193976 1.046233
v 10.692953 3.142037 0.762029
v 10.692744 3.029998 0.728041
v 10.692768 2.990656 0.731915
v 10.692768 2.990656 0.731915
v 10.692839 2.952826 0.743391
v 10.692953 3.142037 0.762029
v 10.692839 2.952826 0.743391
v 10.692954 2.917962 0.762027
v 10.693110 2.887403 0.787105
v 10.693297 2.862324 0.817663
v 10.692744 3.029998 0.728041
v 10.693747 3.227782 0.890355
v 10.693512 3.216307 0.852527
v 10.693270 3.193979 0.813158
v 10.693270 3.193979 0.813158
v 10.693110 3.172593 0.787105
v 10.692953 3.142037 0.762029
v 10.694466 2.843689 1.006867
v 10.694681 2.862324 1.041731
v 10.694870 2.887403 1.072289
v 10.695024 2.917962 1.097367
v 10.695140 2.952826 1.116002
v 10.695210 2.990656 1.127479
v 10.708464 3.163164 -5.781998
v 10.707581 3.641524 -5.786891
v 10.713424 3.641524 -5.226834
v 10.713424 3.163164 -5.226834
v 10.625036 3.641524 -5.865119
v 10.629893 3.163164 -5.864289
v 10.544806 3.163164 -5.866166
v 10.544806 3.641524 -5.866166
v 10.544744 3.163164 -5.876260
v 10.544744 3.641524 -5.876260
v 10.693417 3.163164 -5.821596
v 10.691582 3.641524 -5.824327
v 10.667175 3.163164 -5.848639
v 10.664456 3.641524 -5.850447
v 10.654264 3.604649 -5.504076
v 10.654030 3.616124 -5.541905
v 10.653311 3.604648 -5.658417
v 10.713369 3.185575 -5.822653
v 10.713369 3.616177 -5.822653
v 10.716774 3.616177 -5.271332
v 10.716774 3.185575 -5.271332
v 10.653311 3.232030 -5.658416
v 10.653544 3.220555 -5.620587
v 10.652637 3.495511 -5.767551
v 10.652567 3.457681 -5.779027
v 10.653788 3.216680 -5.581246
v 10.654030 3.220555 -5.541905
v 10.653788 3.619999 -5.581246
v 10.655033 3.418339 -5.379591
v 10.655008 3.457681 -5.383465
v 10.654938 3.495511 -5.394940
v 10.654823 3.530375 -5.413575
v 10.654668 3.560934 -5.438654
v 10.654507 3.582318 -5.464709
v 10.652542 3.418339 -5.782902
v 10.652567 3.378998 -5.779027
v 10.652637 3.341168 -5.767551
v 10.652752 3.306304 -5.748917
v 10.652906 3.275745 -5.723838
v 10.653095 3.250666 -5.693280
v 10.652567 3.457681 -5.779027
v 10.652542 3.418339 -5.782902
v 10.653311 3.604648 -5.658417
v 10.653311 3.604648 -5.658417
v 10.653788 3.619999 -5.581246
v 10.653544 3.616124 -5.620587
v 10.653068 3.582321 -5.697785
v 10.652906 3.560934 -5.723838
v 10.653311 3.604648 -5.658417
v 10.652906 3.560934 -5.723838
v 10.652752 3.530375 -5.748917
v 10.652752 3.530375 -5.748917
v 10.654264 3.232030 -5.504076
v 10.654479 3.250666 -5.469212
v 10.654668 3.275745 -5.438654
v 10.654823 3.306304 -5.413575
v 10.654938 3.341168 -5.394940
v 10.655008 3.378998 -5.383465
v 29.491823 3.532457 -19.664642
v 29.496716 4.010817 -19.665525
v 28.936655 4.010817 -19.659683
v 28.936655 3.532457 -19.659681
v 29.574940 4.010817 -19.748066
v 29.574112 3.532457 -19.743210
v 29.575989 3.532457 -19.828300
v 29.575987 4.010817 -19.828300
v 29.586082 3.532457 -19.828362
v 29.586082 4.010817 -19.828362
v 29.531422 3.532457 -19.679689
v 29.534153 4.010817 -19.681526
v 29.558460 3.532457 -19.705927
v 29.560268 4.010817 -19.708645
v 29.213898 3.973942 -19.718842
v 29.251728 3.985417 -19.719074
v 29.488850 3.826975 -19.720539
v 29.532475 3.554868 -19.659737
v 29.532475 3.985470 -19.659737
v 28.981155 3.985470 -19.656332
v 28.981155 3.554868 -19.656332
v 29.368238 3.601324 -19.719795
v 29.330410 3.589848 -19.719561
v 29.291069 3.585973 -19.719318
v 29.251728 3.589848 -19.719074
v 29.291069 3.989292 -19.719318
v 29.089413 3.787633 -19.718073
v 29.093288 3.826974 -19.718098
v 29.104763 3.864805 -19.718168
v 29.123398 3.899669 -19.718283
v 29.148476 3.930228 -19.718437
v 29.174532 3.951611 -19.718599
v 29.492725 3.787633 -19.720564
v 29.488850 3.748291 -19.720539
v 29.477375 3.710461 -19.720469
v 29.458738 3.675597 -19.720354
v 29.433661 3.645038 -19.720200
v 29.403103 3.619959 -19.720011
v 29.330410 3.985417 -19.719561
v 29.368238 3.973942 -19.719795
v 29.407608 3.951614 -19.720037
v 29.433661 3.930228 -19.720200
v 29.458738 3.899669 -19.720354
v 29.477375 3.864805 -19.720469
v 29.213898 3.601324 -19.718842
v 29.179035 3.619959 -19.718626
v 29.148476 3.645038 -19.718437
v 29.123398 3.675597 -19.718283
v 29.104763 3.710461 -19.718168
v 29.093288 3.748291 -19.718098
v 10.686810 9.284360 -9.289039
v 10.685926 9.762720 -9.293932
v 10.691770 9.762720 -8.733873
v 10.691770 9.284360 -8.733873
v 10.603382 9.762720 -9.372159
v 10.608240 9.284360 -9.371329
v 10.523151 9.284360 -9.373206
v 10.523151 9.762720 -9.373206
v 10.523090 9.284360 -9.383301
v 10.523089 9.762720 -9.383300
v 10.671762 9.284360 -9.328635
v 10.669928 9.762720 -9.331367
v 10.645521 9.284360 -9.355680
v 10.642802 9.762720 -9.357488
v 10.632610 9.725845 -9.011116
v 10.632376 9.737321 -9.048945
v 10.631413 9.703520 -9.204822
v 10.691715 9.306771 -9.329694
v 10.691715 9.737373 -9.329694
v 10.695120 9.737373 -8.778373
v 10.695120 9.306771 -8.778373
v 10.631657 9.353227 -9.165457
v 10.631890 9.341751 -9.127627
v 10.630983 9.616708 -9.274592
v 10.630912 9.578877 -9.286068
v 10.632133 9.337876 -9.088286
v 10.632376 9.341751 -9.048945
v 10.632133 9.741196 -9.088286
v 10.633378 9.539536 -8.886631
v 10.633354 9.578877 -8.890505
v 10.633284 9.616708 -8.901981
v 10.633168 9.651572 -8.920616
v 10.633014 9.682131 -8.945694
v 10.632853 9.703514 -8.971750
v 10.630888 9.539536 -9.289942
v 10.630912 9.500195 -9.286068
v 10.630983 9.462364 -9.274592
v 10.631098 9.427500 -9.255957
v 10.631252 9.396941 -9.230879
v 10.631441 9.371862 -9.200320
v 10.630912 9.578877 -9.286068
v 10.630888 9.539536 -9.289942
v 10.631413 9.703520 -9.204822
v 10.631890 9.737321 -9.127627
v 10.631890 9.737321 -9.127627
v 10.631657 9.725845 -9.165457
v 10.631413 9.703520 -9.204822
v 10.631252 9.682131 -9.230879
v 10.631098 9.651572 -9.255957
v 10.632610 9.353227 -9.011116
v 10.632825 9.371862 -8.976253
v 10.633014 9.396941 -8.945694
v 10.633168 9.427500 -8.920616
v 10.633284 9.462364 -8.901981
v 10.633354 9.500195 -8.890505
v 11.312098 3.083713 -13.868065
v 11.312511 3.562073 -13.873019
v 11.173201 3.562073 -13.330530
v 11.173201 3.083713 -13.330530
v 11.253027 3.562073 -13.969942
v 11.257504 3.083713 -13.967884
v 11.175800 3.083713 -13.991719
v 11.175800 3.562073 -13.991719
v 11.178352 3.083713 -14.001486
v 11.178352 3.562073 -14.001486
v 11.307812 3.083713 -13.910204
v 11.306747 3.562073 -13.913317
v 11.289465 3.083713 -13.943118
v 11.287308 3.562073 -13.945566
v 11.187813 3.525198 -13.613638
v 11.197378 3.536674 -13.650238
v 11.226837 3.525198 -13.762965
v 11.327358 3.106124 -13.906062
v 11.327358 3.536727 -13.906062
v 11.187954 3.536727 -13.372646
v 11.187954 3.106124 -13.372646
v 11.226838 3.152580 -13.762966
v 11.217274 3.141104 -13.726365
v 11.254434 3.416061 -13.868557
v 11.257336 3.378231 -13.879660
v 11.207325 3.137230 -13.688302
v 11.197378 3.141104 -13.650238
v 11.207325 3.540549 -13.688302
v 11.156336 3.338889 -13.493195
v 11.157315 3.378231 -13.496943
v 11.160217 3.416061 -13.508046
v 11.164929 3.450925 -13.526076
v 11.171270 3.481484 -13.550341
v 11.177858 3.502867 -13.575550
v 11.258315 3.338889 -13.883409
v 11.257336 3.299547 -13.879660
v 11.257336 3.299547 -13.879660
v 11.254434 3.261717 -13.868557
v 11.226837 3.525198 -13.762965
v 11.254434 3.261717 -13.868557
v 11.249722 3.226853 -13.850527
v 11.243382 3.196294 -13.826262
v 11.235654 3.171215 -13.796698
v 11.217273 3.536674 -13.726365
v 11.236794 3.502871 -13.801056
v 11.243381 3.481484 -13.826262
v 11.226837 3.525198 -13.762965
v 11.243381 3.481484 -13.826262
v 11.249722 3.450925 -13.850527
v 11.187813 3.152580 -13.613638
v 11.178997 3.171215 -13.579906
v 11.171270 3.196294 -13.550341
v 11.164929 3.226853 -13.526076
v 11.160217 3.261717 -13.508046
v 11.157315 3.299547 -13.496943
v 16.677654 9.247058 -19.030207
v 16.682152 9.725418 -19.032326
v 16.142689 9.725418 -18.881729
v 16.142689 9.247058 -18.881729
v 16.736349 9.725418 -19.132303
v 16.736803 9.247058 -19.127396
v 16.716595 9.247058 -19.210072
v 16.716595 9.725418 -19.210072
v 16.726328 9.247058 -19.212744
v 16.726328 9.725418 -19.212744
v 16.712008 9.247058 -19.054989
v 16.714170 9.725418 -19.057468
v 16.731337 9.247058 -19.087334
v 16.732380 9.725418 -19.090429
v 16.718191 9.269469 -19.035992
v 16.718191 9.700071 -19.035992
v 16.186539 9.700071 -18.890011
v 16.186539 9.269469 -18.890011
v 16.544006 9.315925 -19.051495
v 16.507526 9.304449 -19.041477
v 16.395170 9.688542 -19.010628
v 16.649250 9.579406 -19.080391
v 16.660315 9.541575 -19.083431
v 16.469589 9.300574 -19.031061
v 16.431652 9.304449 -19.020645
v 16.469589 9.703894 -19.031061
v 16.395170 9.688542 -19.010628
v 16.431652 9.700019 -19.020645
v 16.275127 9.502234 -18.977667
v 16.278864 9.541575 -18.978691
v 16.289930 9.579406 -18.981731
v 16.307899 9.614270 -18.986666
v 16.307899 9.614270 -18.986666
v 16.332085 9.644829 -18.993305
v 16.395170 9.688542 -19.010628
v 16.332085 9.644829 -18.993305
v 16.357210 9.666212 -19.000204
v 16.395170 9.688542 -19.010628
v 16.664051 9.502234 -19.084455
v 16.660315 9.462893 -19.083431
v 16.649250 9.425062 -19.080391
v 16.631279 9.390198 -19.075459
v 16.607096 9.359639 -19.068817
v 16.577627 9.334560 -19.060726
v 16.469589 9.703894 -19.031061
v 16.507526 9.700019 -19.041477
v 16.507526 9.700019 -19.041477
v 16.544006 9.688543 -19.051495
v 16.544006 9.688543 -19.051495
v 16.581972 9.666215 -19.061920
v 16.581972 9.666215 -19.061920
v 16.607096 9.644829 -19.068817
v 16.607096 9.644829 -19.068817
v 16.631279 9.614270 -19.075459
v 16.395172 9.315925 -19.010628
v 16.361553 9.334560 -19.001396
v 16.332085 9.359639 -18.993305
v 16.307899 9.390198 -18.986666
v 16.289930 9.425062 -18.981731
v 16.278864 9.462893 -18.978691
vt 0.000000 0.000000
vt 0.000000 0.000000
vt 0.000000 0.000000
vn -0.2893 -0.0288 -0.9568
vn -0.3341 -0.0138 -0.9424
vn -0.1338 0.0008 -0.9910
vn -0.1332 -0.0000 -0.9911
vn -0.9986 -0.0147 -0.0504
vn -0.9959 0.0081 -0.0905
vn -0.9984 -0.0002 -0.0562
vn -0.9988 -0.0000 -0.0495
vn -0.1305 -0.0000 -0.9914
vn -0.1304 -0.0000 -0.9915
vn -0.6366 -0.0041 -0.7712
vn -0.6670 -0.0014 -0.7451
vn -0.8888 0.0018 -0.4583
vn -0.9067 0.0044 -0.4217
vn 0.1304 -0.0000 0.9915
vn 0.1305 -0.0001 0.9915
vn 0.1305 -0.0000 0.9915
vn 0.1303 -0.0000 0.9915
vn -0.1546 -0.0288 -0.9876
vn -0.2010 -0.0138 -0.9795
vn 0.0041 0.0008 -1.0000
vn 0.0048 -0.0000 -1.0000
vn -0.9821 -0.0147 -0.1876
vn -0.9739 0.0081 -0.2269
vn -0.9811 -0.0002 -0.1934
vn -0.9824 -0.0000 -0.1867
vn 0.0075 -0.0000 -1.0000
vn -0.5242 -0.0040 -0.8516
vn -0.5579 -0.0013 -0.8299
vn -0.8172 0.0017 -0.5764
vn -0.8399 0.0044 -0.5427
vn -0.0075 -0.0000 1.0000
vn -0.0075 -0.0001 1.0000
vn -0.0074 -0.0000 1.0000
vn 0.9527 -0.0288 -0.3024
vn 0.9378 -0.0138 -0.3470
vn 0.9891 0.0008 -0.1474
vn 0.9892 -0.0000 -0.1467
vn 0.0367 -0.0147 -0.9992
vn 0.0768 0.0081 -0.9970
vn 0.0425 -0.0002 -0.9991
vn 0.0358 -0.0000 -0.9994
vn 0.9896 -0.0000 -0.1441
vn 0.9896 -0.0000 -0.1440
vn 0.7624 -0.0041 -0.6471
vn 0.7359 -0.0014 -0.6771
vn 0.4461 0.0018 -0.8950
vn 0.4093 0.0044 -0.9124
vn -0.9896 -0.0000 0.1440
vn -0.9896 -0.0001 0.1440
vn -0.9896 -0.0000 0.1439
vn 0.9854 -0.0288 -0.1681
vn 0.9766 -0.0138 -0.2144
vn 1.0000 0.0008 -0.0096
vn 1.0000 -0.0000 -0.0089
vn 0.1741 -0.0147 -0.9846
vn 0.2136 0.0081 -0.9769
vn 0.1799 -0.0002 -0.9837
vn 0.1732 -0.0000 -0.9849
vn 1.0000 -0.0000 -0.0062
vn 0.8443 -0.0040 -0.5358
vn 0.8222 -0.0013 -0.5692
vn 0.5652 0.0017 -0.8250
vn 0.5312 0.0044 -0.8473
vn -1.0000 -0.0000 0.0062
vn -1.0000 -0.0001 0.0062
vn 0.9854 -0.0288 -0.1681
vn 0.9767 -0.0138 -0.2143
vn 1.0000 0.0008 -0.0096
vn 1.0000 -0.0000 -0.0089
vn 0.1742 0.0164 -0.9846
vn 0.2136 0.0081 -0.9769
vn 0.1799 -0.0002 -0.9837
vn 0.1733 -0.0000 -0.9849
vn 1.0000 -0.0000 -0.0062
vn 0.8443 -0.0040 -0.5358
vn 0.8222 -0.0014 -0.5692
vn 0.5652 0.0017 -0.8249
vn 0.5312 0.0044 -0.8473
vn -1.0000 -0.0000 0.0062
vn -1.0000 -0.0000 0.0061
vn -1.0000 0.0001 0.0059
vn 0.9766 -0.0138 -0.2144
vn 0.1741 -0.0147 -0.9846
vn 0.2135 0.0081 -0.9769
vn 0.8443 0.0011 -0.5358
vn 0.8222 -0.0013 -0.5692
vn 0.5312 -0.0014 -0.8473
vn -1.0000 0.0001 0.0062
vn -1.0000 -0.0001 0.0064
vn 0.1682 -0.0288 0.9853
vn 0.2143 -0.0138 0.9767
vn 0.0096 0.0008 1.0000
vn 0.0089 -0.0000 1.0000
vn 0.9846 -0.0147 0.1742
vn 0.9769 0.0081 0.2136
vn 0.9837 -0.0002 0.1799
vn 0.9849 -0.0002 0.1733
vn 0.0062 -0.0000 1.0000
vn 0.5359 -0.0041 0.8443
vn 0.5692 -0.0013 0.8222
vn 0.8250 0.0017 0.5652
vn 0.8472 0.0044 0.5312
vn -0.0062 -0.0000 -1.0000
vn 0.5652 0.0017 -0.8250
vn 0.5312 0.0043 -0.8473
vn -1.0000 -0.0000 0.0063
vn 0.9953 -0.0288 0.0926
vn 0.9989 -0.0138 0.0457
vn 0.9684 0.0008 0.2495
vn 0.9682 -0.0000 0.2502
vn 0.4230 -0.0147 -0.9060
vn 0.4591 0.0081 -0.8883
vn 0.4284 -0.0002 -0.9036
vn 0.4223 0.0002 -0.9065
vn 0.9675 -0.0000 0.2529
vn 0.9543 -0.0040 -0.2990
vn 0.9415 -0.0013 -0.3370
vn 0.7595 0.0017 -0.6506
vn 0.7323 0.0044 -0.6809
vn -0.9675 -0.0000 -0.2528
vn 0.9675 -0.0000 0.2528
vn -0.9675 -0.0000 -0.2529
vn -0.9675 0.0001 -0.2530
vn 0.4174 -0.0288 0.9083
vn 0.4598 -0.0138 0.8879
vn 0.2681 0.0008 0.9634
vn 0.2674 -0.0000 0.9636
vn 0.9961 -0.0147 -0.0867
vn 0.9989 0.0081 -0.0466
vn 0.9967 -0.0002 -0.0808
vn 0.9962 -0.0000 -0.0876
vn 0.2648 -0.0000 0.9643
vn 0.7361 -0.0041 0.6769
vn 0.7626 -0.0014 0.6468
vn 0.9432 0.0017 0.3324
vn 0.9558 0.0044 0.2938
vn -0.2648 -0.0000 -0.9643
vn -0.2647 -0.0001 -0.9643
vn -0.2648 0.0001 -0.9643
vn -0.2649 -0.0002 -0.9643
vn -0.2648 -0.0001 -0.9643
f 1/1/1 2/1/2 3/1/3
f 1/1/1 3/1/3 4/1/4
f 5/1/5 6/1/6 7/1/7
f 5/1/5 7/1/7 8/1/8
f 8/1/8 7/1/7 9/1/9
f 8/1/8 9/1/9 10/1/10
f 11/1/11 12/1/12 2/1/2
f 11/1/11 2/1/2 1/1/1
f 13/1/13 14/1/14 12/1/12
f 13/1/13 12/1/12 11/1/11
f 6/1/6 5/1/5 14/1/14
f 6/1/6 14/1/14 13/1/13
f 15/1/15 16/1/15 17/1/15
f 18/1/10 19/1/10 20/1/10
f 18/1/10 20/1/10 21/1/10
f 22/1/15 23/1/15 17/1/15
f 24/1/15 25/1/15 26/1/15
f 27/1/15 24/1/15 28/1/15
f 24/1/15 29/1/15 30/1/15
f 31/1/15 32/1/15 33/1/15
f 34/1/15 35/1/15 24/1/15
f 36/1/15 37/1/15 32/1/15
f 38/1/15 39/1/15 17/1/15
f 40/1/15 41/1/15 24/1/15
f 42/1/16 43/1/16 44/1/16
f 32/1/15 45/1/15 46/1/15
f 46/1/15 47/1/17 32/1/15
f 48/1/15 49/1/15 17/1/15
f 49/1/15 50/1/18 17/1/15
f 50/1/18 51/1/15 17/1/15
f 52/1/15 53/1/15 24/1/15
f 24/1/15 27/1/15 54/1/15
f 55/1/15 56/1/15 17/1/15
f 57/1/17 58/1/17 32/1/17
f 59/1/15 60/1/15 17/1/15
f 61/1/15 62/1/15 32/1/15
f 63/1/15 64/1/15 24/1/15
f 26/1/15 65/1/15 24/1/15
f 65/1/15 66/1/15 24/1/15
f 66/1/15 67/1/15 24/1/15
f 67/1/15 68/1/15 24/1/15
f 68/1/15 69/1/15 24/1/15
f 69/1/15 70/1/15 24/1/15
f 70/1/15 29/1/15 24/1/15
f 71/1/19 72/1/20 73/1/21
f 71/1/19 73/1/21 74/1/22
f 75/1/23 76/1/24 77/1/25
f 75/1/23 77/1/25 78/1/26
f 78/1/26 77/1/25 79/1/27
f 78/1/26 79/1/27 80/1/27
f 81/1/28 82/1/29 72/1/20
f 81/1/28 72/1/20 71/1/19
f 83/1/30 84/1/31 82/1/29
f 83/1/30 82/1/29 81/1/28
f 76/1/24 75/1/23 84/1/31
f 76/1/24 84/1/31 83/1/30
f 85/1/32 86/1/32 87/1/32
f 88/1/27 89/1/27 90/1/27
f 88/1/27 90/1/27 91/1/27
f 92/1/32 93/1/32 87/1/32
f 94/1/32 95/1/32 87/1/32
f 87/1/32 96/1/32 97/1/32
f 98/1/32 87/1/32 86/1/32
f 87/1/32 99/1/32 100/1/32
f 101/1/32 87/1/32 100/1/32
f 101/1/32 102/1/32 87/1/32
f 102/1/32 103/1/32 87/1/32
f 103/1/32 104/1/32 87/1/32
f 104/1/32 85/1/32 87/1/32
f 93/1/32 96/1/32 87/1/32
f 87/1/32 105/1/32 106/1/32
f 106/1/32 107/1/32 87/1/32
f 107/1/32 108/1/32 87/1/32
f 108/1/32 109/1/32 87/1/32
f 109/1/32 110/1/32 87/1/32
f 110/1/32 92/1/32 87/1/32
f 95/1/32 105/1/32 87/1/32
f 87/1/32 98/1/32 111/1/32
f 112/1/33 113/1/33 114/1/33
f 115/1/34 116/1/34 117/1/34
f 118/1/32 94/1/32 87/1/32
f 97/1/32 119/1/32 87/1/32
f 119/1/32 120/1/32 87/1/32
f 120/1/32 121/1/32 87/1/32
f 121/1/32 122/1/32 87/1/32
f 122/1/32 123/1/32 87/1/32
f 123/1/32 124/1/32 87/1/32
f 124/1/32 99/1/32 87/1/32
f 125/2/35 126/2/36 127/2/37
f 125/2/35 127/2/37 128/2/38
f 129/2/39 130/2/40 131/2/41
f 129/2/39 131/2/41 132/2/42
f 132/2/42 131/2/41 133/2/43
f 132/2/42 133/2/43 134/2/44
f 135/2/45 136/2/46 126/2/36
f 135/2/45 126/2/36 125/2/35
f 137/2/47 138/2/48 136/2/46
f 137/2/47 136/2/46 135/2/45
f 130/2/40 129/2/39 138/2/48
f 130/2/40 138/2/48 137/2/47
f 139/2/49 140/2/49 141/2/49
f 142/2/44 143/2/44 144/2/44
f 142/2/44 144/2/44 145/2/44
f 146/2/49 147/2/49 141/2/49
f 148/2/49 149/2/49 150/2/49
f 151/2/49 148/2/49 152/2/49
f 148/2/49 153/2/49 154/2/49
f 155/2/49 156/2/49 157/2/49
f 158/2/49 159/2/49 148/2/49
f 160/2/49 161/2/49 156/2/49
f 162/2/49 163/2/49 141/2/49
f 164/2/49 165/2/49 148/2/49
f 166/2/50 167/2/50 168/2/50
f 156/2/49 169/2/49 170/2/49
f 170/2/49 171/2/49 156/2/49
f 172/2/49 173/2/49 141/2/49
f 173/2/51 174/2/51 141/2/51
f 174/2/51 175/2/51 141/2/51
f 176/2/49 177/2/49 148/2/49
f 148/2/49 151/2/49 178/2/49
f 179/2/49 180/2/49 141/2/49
f 181/2/49 182/2/49 156/2/49
f 183/2/51 184/2/51 141/2/51
f 185/2/49 186/2/49 156/2/49
f 187/2/49 188/2/49 148/2/49
f 150/2/49 189/2/49 148/2/49
f 189/2/49 190/2/49 148/2/49
f 190/2/49 191/2/49 148/2/49
f 191/2/49 192/2/49 148/2/49
f 192/2/49 193/2/49 148/2/49
f 193/2/49 194/2/49 148/2/49
f 194/2/49 153/2/49 148/2/49
f 195/2/52 196/2/53 197/2/54
f 195/2/52 197/2/54 198/2/55
f 199/2/56 200/2/57 201/2/58
f 199/2/56 201/2/58 202/2/59
f 202/2/59 201/2/58 203/2/60
f 202/2/59 203/2/60 204/2/60
f 205/2/61 206/2/62 196/2/53
f 205/2/61 196/2/53 195/2/52
f 207/2/63 208/2/64 206/2/62
f 207/2/63 206/2/62 205/2/61
f 200/2/57 199/2/56 208/2/64
f 200/2/57 208/2/64 207/2/63
f 209/2/65 210/2/65 211/2/65
f 212/2/60 213/2/60 214/2/60
f 212/2/60 214/2/60 215/2/60
f 216/2/65 217/2/65 211/2/65
f 218/2/65 219/2/65 211/2/65
f 211/2/65 220/2/65 221/2/65
f 222/2/65 211/2/65 210/2/65
f 211/2/65 223/2/65 224/2/65
f 225/2/65 211/2/65 224/2/65
f 225/2/65 226/2/65 211/2/65
f 226/2/65 227/2/65 211/2/65
f 227/2/65 228/2/65 211/2/65
f 228/2/65 209/2/65 211/2/65
f 217/2/65 220/2/65 211/2/65
f 211/2/65 229/2/65 230/2/65
f 230/2/65 231/2/65 211/2/65
f 231/2/65 232/2/65 211/2/65
f 232/2/65 233/2/65 211/2/65
f 233/2/65 234/2/65 211/2/65
f 234/2/65 216/2/65 211/2/65
f 219/2/65 229/2/65 211/2/65
f 211/2/65 222/2/65 235/2/65
f 236/2/66 237/2/66 238/2/66
f 239/2/65 240/2/65 241/2/65
f 242/2/65 218/2/65 211/2/65
f 221/2/65 243/2/65 211/2/65
f 243/2/65 244/2/65 211/2/65
f 244/2/65 245/2/65 211/2/65
f 245/2/65 246/2/65 211/2/65
f 246/2/65 247/2/65 211/2/65
f 247/2/65 248/2/65 211/2/65
f 248/2/65 223/2/65 211/2/65
f 249/3/67 250/3/68 251/3/69
f 249/3/67 251/3/69 252/3/70
f 253/3/71 254/3/72 255/3/73
f 253/3/71 255/3/73 256/3/74
f 256/3/74 255/3/73 257/3/75
f 256/3/74 257/3/75 258/3/75
f 259/3/76 260/3/77 250/3/68
f 259/3/76 250/3/68 249/3/67
f 261/3/78 262/3/79 260/3/77
f 261/3/78 260/3/77 259/3/76
f 254/3/72 253/3/71 262/3/79
f 254/3/72 262/3/79 261/3/78
f 263/3/80 264/3/80 265/3/80
f 266/3/75 267/3/75 268/3/75
f 266/3/75 268/3/75 269/3/75
f 270/3/80 271/3/80 265/3/80
f 272/3/80 273/3/80 265/3/80
f 265/3/80 274/3/80 275/3/80
f 276/3/80 265/3/80 264/3/80
f 265/3/80 277/3/80 278/3/80
f 279/3/80 265/3/80 278/3/80
f 279/3/80 280/3/80 265/3/80
f 280/3/80 281/3/80 265/3/80
f 281/3/80 282/3/80 265/3/80
f 282/3/80 263/3/80 265/3/80
f 271/3/81 274/3/81 265/3/81
f 283/3/80 284/3/80 285/3/80
f 286/3/81 287/3/81 288/3/81
f 289/3/80 290/3/80 265/3/80
f 290/3/80 291/3/80 265/3/80
f 291/3/80 292/3/80 265/3/80
f 292/3/80 270/3/80 265/3/80
f 273/3/80 293/3/80 265/3/80
f 265/3/80 276/3/80 294/3/80
f 294/3/80 295/3/80 265/3/80
f 295/3/80 296/3/80 265/3/80
f 297/3/82 298/3/82 299/3/82
f 275/3/80 300/3/80 265/3/80
f 300/3/80 301/3/80 265/3/80
f 301/3/80 302/3/80 265/3/80
f 302/3/80 303/3/80 265/3/80
f 303/3/80 304/3/80 265/3/80
f 304/3/80 305/3/80 265/3/80
f 305/3/80 277/3/80 265/3/80
f 306/3/67 307/3/83 308/3/69
f 306/3/67 308/3/69 309/3/70
f 310/3/84 311/3/85 312/3/73
f 310/3/84 312/3/73 313/3/74
f 313/3/74 312/3/73 314/3/75
f 313/3/74 314/3/75 315/3/75
f 316/3/86 317/3/87 307/3/83
f 316/3/86 307/3/83 306/3/67
f 318/3/78 319/3/88 317/3/87
f 318/3/78 317/3/87 316/3/86
f 311/3/85 310/3/84 319/3/88
f 311/3/85 319/3/88 318/3/78
f 320/3/80 321/3/80 322/3/80
f 323/3/75 324/3/75 325/3/75
f 323/3/75 325/3/75 326/3/75
f 327/3/80 328/3/80 322/3/80
f 329/3/80 330/3/80 322/3/80
f 322/3/80 331/3/80 332/3/80
f 333/3/80 322/3/80 321/3/80
f 322/3/80 334/3/80 335/3/80
f 336/3/80 322/3/80 335/3/80
f 336/3/80 337/3/80 322/3/80
f 337/3/80 338/3/80 322/3/80
f 338/3/80 339/3/80 322/3/80
f 339/3/80 320/3/80 322/3/80
f 328/3/81 331/3/81 322/3/81
f 322/3/80 340/3/80 341/3/80
f 341/3/80 342/3/80 322/3/80
f 342/3/80 343/3/80 322/3/80
f 343/3/80 344/3/80 322/3/80
f 344/3/80 345/3/80 322/3/80
f 345/3/80 327/3/80 322/3/80
f 346/3/81 347/3/81 348/3/81
f 349/3/89 350/3/89 351/3/89
f 352/3/90 353/3/90 354/3/90
f 355/3/81 356/3/81 348/3/81
f 357/3/80 329/3/80 322/3/80
f 332/3/80 358/3/80 322/3/80
f 358/3/80 359/3/80 322/3/80
f 359/3/81 360/3/81 322/3/81
f 360/3/80 361/3/80 322/3/80
f 361/3/80 362/3/80 322/3/80
f 362/3/80 363/3/80 322/3/80
f 363/3/80 334/3/80 322/3/80
f 364/3/91 365/3/92 366/3/93
f 364/3/91 366/3/93 367/3/94
f 368/3/95 369/3/96 370/3/97
f 368/3/95 370/3/97 371/3/98
f 371/3/98 370/3/97 372/3/99
f 371/3/98 372/3/99 373/3/99
f 374/3/100 375/3/101 365/3/92
f 374/3/100 365/3/92 364/3/91
f 376/3/102 377/3/103 375/3/101
f 376/3/102 375/3/101 374/3/100
f 369/3/96 368/3/95 377/3/103
f 369/3/96 377/3/103 376/3/102
f 378/3/104 379/3/104 380/3/104
f 381/3/99 382/3/99 383/3/99
f 381/3/99 383/3/99 384/3/99
f 385/3/104 386/3/104 380/3/104
f 380/3/104 387/3/104 388/3/104
f 389/3/104 380/3/104 379/3/104
f 380/3/104 390/3/104 391/3/104
f 392/3/104 380/3/104 391/3/104
f 392/3/104 393/3/104 380/3/104
f 393/3/104 394/3/104 380/3/104
f 394/3/104 395/3/104 380/3/104
f 395/3/104 378/3/104 380/3/104
f 386/3/104 387/3/104 380/3/104
f 380/3/104 396/3/104 397/3/104
f 397/3/104 398/3/104 380/3/104
f 398/3/104 399/3/104 380/3/104
f 399/3/104 400/3/104 380/3/104
f 400/3/104 401/3/104 380/3/104
f 401/3/104 385/3/104 380/3/104
f 380/3/104 389/3/104 402/3/104
f 402/3/104 403/3/104 380/3/104
f 403/3/104 404/3/104 380/3/104
f 404/3/104 405/3/104 380/3/104
f 405/3/104 406/3/104 380/3/104
f 406/3/104 407/3/104 380/3/104
f 388/3/104 408/3/104 380/3/104
f 408/3/104 409/3/104 380/3/104
f 409/3/104 410/3/104 380/3/104
f 410/3/104 411/3/104 380/3/104
f 411/3/104 412/3/104 380/3/104
f 412/3/104 413/3/104 380/3/104
f 413/3/104 390/3/104 380/3/104
f 414/3/67 415/3/83 416/3/69
f 414/3/67 416/3/69 417/3/70
f 418/3/84 419/3/72 420/3/73
f 418/3/84 420/3/73 421/3/74
f 421/3/74 420/3/73 422/3/75
f 421/3/74 422/3/75 423/3/75
f 424/3/76 425/3/77 415/3/83
f 424/3/76 415/3/83 414/3/67
f 426/3/105 427/3/106 425/3/77
f 426/3/105 425/3/77 424/3/76
f 419/3/72 418/3/84 427/3/106
f 419/3/72 427/3/106 426/3/105
f 428/3/80 429/3/80 430/3/80
f 431/3/75 432/3/75 433/3/75
f 431/3/75 433/3/75 434/3/75
f 435/3/80 436/3/80 430/3/80
f 437/3/80 438/3/80 430/3/80
f 430/3/80 439/3/80 440/3/80
f 441/3/80 430/3/80 429/3/80
f 430/3/80 442/3/80 443/3/80
f 444/3/80 430/3/80 443/3/80
f 444/3/80 445/3/80 430/3/80
f 445/3/80 446/3/80 430/3/80
f 446/3/80 447/3/80 430/3/80
f 447/3/80 428/3/80 430/3/80
f 436/3/80 439/3/80 430/3/80
f 430/3/80 448/3/80 449/3/80
f 449/3/81 450/3/81 430/3/81
f 450/3/80 451/3/80 430/3/80
f 451/3/80 452/3/80 430/3/80
f 452/3/80 453/3/80 430/3/80
f 453/3/80 435/3/80 430/3/80
f 454/3/81 455/3/81 456/3/81
f 430/3/80 441/3/80 457/3/80
f 458/3/107 459/3/107 460/3/107
f 461/3/80 462/3/80 430/3/80
f 462/3/80 437/3/80 430/3/80
f 440/3/80 463/3/80 430/3/80
f 463/3/80 464/3/80 430/3/80
f 464/3/80 465/3/80 430/3/80
f 465/3/80 466/3/80 430/3/80
f 466/3/80 467/3/80 430/3/80
f 467/3/80 468/3/80 430/3/80
f 468/3/80 442/3/80 430/3/80
f 469/3/108 470/3/109 471/3/110
f 469/3/108 471/3/110 472/3/111
f 473/3/112 474/3/113 475/3/114
f 473/3/112 475/3/114 476/3/115
f 476/3/115 475/3/114 477/3/116
f 476/3/115 477/3/116 478/3/116
f 479/3/117 480/3/118 470/3/109
f 479/3/117 470/3/109 469/3/108
f 481/3/119 482/3/120 480/3/118
f 481/3/119 480/3/118 479/3/117
f 474/3/113 473/3/112 482/3/120
f 474/3/113 482/3/120 481/3/119
f 483/3/121 484/3/121 485/3/121
f 486/3/116 487/3/116 488/3/116
f 486/3/122 488/3/122 489/3/122
f 490/3/121 491/3/121 485/3/121
f 492/3/121 493/3/121 485/3/121
f 485/3/123 494/3/123 495/3/123
f 496/3/123 485/3/123 484/3/123
f 485/3/123 497/3/123 498/3/123
f 499/3/121 485/3/121 498/3/121
f 499/3/123 500/3/123 485/3/123
f 500/3/121 501/3/121 485/3/121
f 501/3/121 502/3/121 485/3/121
f 502/3/121 483/3/121 485/3/121
f 491/3/121 494/3/121 485/3/121
f 485/3/121 503/3/121 504/3/121
f 505/3/123 506/3/123 507/3/123
f 508/3/121 509/3/121 485/3/121
f 509/3/121 510/3/121 485/3/121
f 510/3/121 511/3/121 485/3/121
f 511/3/121 490/3/121 485/3/121
f 493/3/123 503/3/123 485/3/123
f 485/3/121 496/3/121 512/3/121
f 513/3/124 514/3/124 515/3/124
f 516/3/121 517/3/121 485/3/121
f 517/3/121 492/3/121 485/3/121
f 495/3/121 518/3/121 485/3/121
f 518/3/121 519/3/121 485/3/121
f 519/3/123 520/3/123 485/3/123
f 520/3/123 521/3/123 485/3/123
f 521/3/121 522/3/121 485/3/121
f 522/3/123 523/3/123 485/3/123
f 523/3/121 497/3/121 485/3/121
f 524/3/125 525/3/126 526/3/127
f 524/3/125 526/3/127 527/3/128
f 528/3/129 529/3/130 530/3/131
f 528/3/129 530/3/131 531/3/132
f 531/3/132 530/3/131 532/3/133
f 531/3/132 532/3/133 533/3/133
f 534/3/134 535/3/135 525/3/126
f 534/3/134 525/3/126 524/3/125
f 536/3/136 537/3/137 535/3/135
f 536/3/136 535/3/135 534/3/134
f 529/3/130 528/3/129 537/3/137
f 529/3/130 537/3/137 536/3/136
f 538/3/133 539/3/133 540/3/133
f 538/3/133 540/3/133 541/3/133
f 542/3/138 543/3/138 544/3/138
f 545/3/138 546/3/138 544/3/138
f 544/3/138 547/3/138 548/3/138
f 549/3/139 550/3/139 551/3/139
f 544/3/138 552/3/138 553/3/138
f 554/3/138 544/3/138 553/3/138
f 554/3/138 555/3/138 544/3/138
f 556/3/140 557/3/140 558/3/140
f 559/3/141 560/3/141 561/3/141
f 543/3/138 547/3/138 544/3/138
f 544/3/138 562/3/138 563/3/138
f 563/3/138 564/3/138 544/3/138
f 564/3/138 565/3/138 544/3/138
f 565/3/138 566/3/138 544/3/138
f 566/3/138 567/3/138 544/3/138
f 567/3/138 542/3/138 544/3/138
f 546/3/138 562/3/138 544/3/138
f 544/3/138 568/3/138 569/3/138
f 570/3/140 571/3/140 558/3/140
f 572/3/138 573/3/138 544/3/138
f 574/3/142 575/3/142 550/3/142
f 576/3/138 577/3/138 544/3/138
f 577/3/138 545/3/138 544/3/138
f 548/3/138 578/3/138 544/3/138
f 578/3/138 579/3/138 544/3/138
f 579/3/138 580/3/138 544/3/138
f 580/3/138 581/3/138 544/3/138
f 581/3/138 582/3/138 544/3/138
f 582/3/138 583/3/138 544/3/138
f 583/3/138 552/3/138 544/3/138
