v 21.871441 6.354089 -28.789284
v 21.866537 6.832449 -28.788467
v 22.426620 6.832449 -28.786646
v 22.426620 6.354089 -28.786646
v 21.787184 6.832449 -28.706997
v 21.788080 6.354089 -28.711842
v 21.785040 6.354089 -28.626795
v 21.785040 6.832449 -28.626795
v 21.774944 6.354089 -28.626871
v 21.774944 6.832449 -28.626869
v 21.831646 6.354089 -28.774784
v 21.828888 6.832449 -28.772987
v 21.804241 6.354089 -28.748917
v 21.802399 6.832449 -28.746225
v 22.148594 6.795574 -28.731285
v 22.110765 6.807049 -28.731569
v 22.187960 6.773243 -28.730989
v 21.830856 6.376500 -28.794746
v 21.830856 6.807103 -28.794746
v 22.382172 6.807103 -28.790604
v 22.382172 6.376500 -28.790604
v 21.994253 6.422956 -28.732445
v 22.032084 6.411480 -28.732161
v 21.885120 6.686437 -28.733265
v 21.873646 6.648607 -28.733351
v 22.071424 6.407605 -28.731865
v 22.110765 6.411480 -28.731569
v 22.071424 6.810924 -28.731865
v 22.273077 6.609265 -28.730350
v 22.269203 6.648607 -28.730379
v 22.257727 6.686437 -28.730465
v 22.239094 6.721301 -28.730606
v 22.214014 6.751860 -28.730793
v 21.869770 6.609265 -28.733379
v 21.873646 6.569923 -28.733351
v 21.885120 6.532093 -28.733265
v 21.903755 6.497229 -28.733126
v 21.928833 6.466670 -28.732937
v 21.959391 6.441591 -28.732708
v 22.032084 6.807049 -28.732161
v 21.994253 6.795574 -28.732445
v 21.954885 6.773246 -28.732740
v 21.928833 6.751860 -28.732937
v 21.903755 6.721301 -28.733126
v 22.148594 6.422956 -28.731285
v 22.183456 6.441591 -28.731024
v 22.214014 6.466670 -28.730793
v 22.239094 6.497229 -28.730606
v 22.257727 6.532093 -28.730465
v 22.269203 6.569923 -28.730379
v 12.579782 6.302079 32.680267
v 12.578898 6.780439 32.675377
v 12.584742 6.780439 33.235428
v 12.584742 6.302079 33.235428
v 12.496348 6.780439 32.597145
v 12.501205 6.302079 32.597977
v 12.416124 6.302079 32.596100
v 12.416124 6.780439 32.596100
v 12.416061 6.302079 32.586006
v 12.416061 6.780439 32.586006
v 12.564738 6.302079 32.640671
v 12.562902 6.780439 32.637939
v 12.538498 6.302079 32.613625
v 12.535782 6.780439 32.611824
v 12.525581 6.743564 32.958187
v 12.525349 6.755039 32.920357
v 12.525826 6.721233 32.997555
v 12.584687 6.324490 32.639610
v 12.584686 6.755093 32.639610
v 12.588091 6.755093 33.190933
v 12.588091 6.324490 33.190933
v 12.524629 6.370946 32.803848
v 12.524862 6.359470 32.841675
v 12.523954 6.634427 32.694710
v 12.523884 6.596597 32.683235
v 12.525105 6.355595 32.881020
v 12.525349 6.359470 32.920357
v 12.525105 6.758914 32.881020
v 12.526350 6.557255 33.082672
v 12.526327 6.596597 33.078796
v 12.526256 6.634427 33.067322
v 12.526140 6.669291 33.048687
v 12.525986 6.699850 33.023609
v 12.523860 6.557255 32.679359
v 12.523884 6.517913 32.683235
v 12.523954 6.480083 32.694710
v 12.524070 6.445219 32.713348
v 12.524225 6.414660 32.738426
v 12.524414 6.389581 32.768982
v 12.524862 6.755039 32.841675
v 12.524629 6.743564 32.803848
v 12.524385 6.721236 32.764477
v 12.524225 6.699850 32.738426
v 12.524070 6.669291 32.713348
v 12.525581 6.370945 32.958187
v 12.525797 6.389581 32.993050
v 12.525986 6.414660 33.023609
v 12.526140 6.445219 33.048687
v 12.526256 6.480083 33.067322
v 12.526327 6.517913 33.078796
v 10.749747 5.930083 1.194731
v 10.748865 6.408443 1.189840
v 10.754707 6.408443 1.749896
v 10.754707 5.930083 1.749896
v 10.666323 6.408443 1.111611
v 10.671179 5.930083 1.112441
v 10.586090 5.930083 1.110565
v 10.586090 6.408443 1.110565
v 10.586028 5.930083 1.100471
v 10.586027 6.408443 1.100471
v 10.734701 5.930083 1.155135
v 10.732865 6.408443 1.152401
v 10.708462 5.930083 1.128093
v 10.705742 6.408443 1.126286
v 10.695548 6.371568 1.472654
v 10.695314 6.383044 1.434825
v 10.694595 6.371569 1.318315
v 10.754654 5.952495 1.154077
v 10.754653 6.383097 1.154077
v 10.758058 6.383097 1.705398
v 10.758058 5.952494 1.705398
v 10.694595 5.998950 1.318314
v 10.694828 5.987474 1.356142
v 10.693921 6.262431 1.209178
v 10.693850 6.224601 1.197702
v 10.695071 5.983600 1.395483
v 10.695314 5.987474 1.434825
v 10.695071 6.386919 1.395483
v 10.696317 6.185259 1.597139
v 10.696293 6.224601 1.593265
v 10.696222 6.262431 1.581789
v 10.696107 6.297295 1.563154
v 10.695951 6.327854 1.538075
v 10.695791 6.349238 1.512020
v 10.693827 6.185259 1.193828
v 10.693850 6.145917 1.197702
v 10.693921 6.108088 1.209178
v 10.694036 6.073223 1.227814
v 10.694191 6.042665 1.252892
v 10.694380 6.017586 1.283449
v 10.694828 6.383044 1.356142
v 10.694351 6.349241 1.278945
v 10.694191 6.327854 1.252892
v 10.694595 6.371569 1.318315
v 10.694191 6.327854 1.252892
v 10.694036 6.297296 1.227814
v 10.695548 5.998950 1.472654
v 10.695763 6.017586 1.507518
v 10.695951 6.042665 1.538075
v 10.696107 6.073223 1.563154
v 10.696222 6.108088 1.581789
v 10.696293 6.145917 1.593265
v 10.702245 8.924275 -6.498639
v 10.701362 9.402636 -6.503531
v 10.707205 9.402636 -5.943473
v 10.707205 8.924275 -5.943473
v 10.618818 9.402636 -6.581758
v 10.623674 8.924275 -6.580928
v 10.538588 8.924275 -6.582805
v 10.538588 9.402636 -6.582805
v 10.538525 8.924275 -6.592899
v 10.538525 9.402636 -6.592899
v 10.687199 8.924275 -6.538234
v 10.685364 9.402636 -6.540967
v 10.660958 8.924275 -6.565279
v 10.658238 9.402636 -6.567087
v 10.648045 9.365761 -6.220716
v 10.647812 9.377236 -6.258544
v 10.646849 9.343435 -6.414421
v 10.707151 8.946687 -6.539293
v 10.707150 9.377289 -6.539293
v 10.710555 9.377289 -5.987972
v 10.710555 8.946687 -5.987972
v 10.647092 8.993142 -6.375055
v 10.647326 8.981667 -6.337226
v 10.646418 9.256623 -6.484191
v 10.646347 9.218793 -6.495667
v 10.646849 9.343435 -6.414421
v 10.647569 8.977792 -6.297885
v 10.647812 8.981667 -6.258544
v 10.647569 9.381111 -6.297885
v 10.648813 9.179451 -6.096230
v 10.648790 9.218793 -6.100104
v 10.648719 9.256623 -6.111580
v 10.648603 9.291488 -6.130215
v 10.648449 9.322046 -6.155293
v 10.648289 9.343430 -6.181349
v 10.646324 9.179451 -6.499541
v 10.646347 9.140110 -6.495667
v 10.646418 9.102280 -6.484191
v 10.646534 9.067415 -6.465556
v 10.646688 9.036857 -6.440477
v 10.646877 9.011778 -6.409919
v 10.646347 9.218793 -6.495667
v 10.647326 9.377236 -6.337226
v 10.647326 9.377236 -6.337226
v 10.647092 9.365761 -6.375055
v 10.646688 9.322046 -6.440477
v 10.646534 9.291488 -6.465556
v 10.646418 9.256623 -6.484191
v 10.648045 8.993142 -6.220716
v 10.648260 9.011778 -6.185852
v 10.648449 9.036857 -6.155293
v 10.648603 9.067415 -6.130215
v 10.648719 9.102280 -6.111580
v 10.648790 9.140110 -6.100104
v 33.636909 3.182236 -19.692030
v 33.641800 3.660596 -19.692913
v 33.081749 3.660596 -19.687071
v 33.081749 3.182236 -19.687071
v 33.720032 3.660596 -19.775459
v 33.719208 3.182236 -19.770605
v 33.721077 3.182236 -19.855688
v 33.721077 3.660596 -19.855688
v 33.731174 3.182236 -19.855751
v 33.731174 3.660596 -19.855751
v 33.676506 3.182236 -19.707073
v 33.679237 3.660596 -19.708908
v 33.703548 3.182236 -19.733311
v 33.705360 3.660596 -19.736032
v 33.358986 3.623721 -19.746231
v 33.396820 3.635197 -19.746464
v 33.319622 3.601390 -19.745987
v 33.677567 3.204647 -19.687124
v 33.677567 3.635250 -19.687126
v 33.126244 3.635250 -19.683722
v 33.126244 3.204647 -19.683720
v 33.513329 3.251103 -19.747183
v 33.475502 3.239627 -19.746950
v 33.622467 3.514584 -19.747856
v 33.633942 3.476754 -19.747929
v 33.436157 3.235753 -19.746706
v 33.396820 3.239627 -19.746464
v 33.436157 3.639071 -19.746706
v 33.319622 3.601390 -19.745987
v 33.396820 3.635197 -19.746464
v 33.234505 3.437412 -19.745461
v 33.238377 3.476754 -19.745485
v 33.249855 3.514584 -19.745556
v 33.268486 3.549448 -19.745670
v 33.293568 3.580007 -19.745827
v 33.637814 3.437412 -19.747952
v 33.633942 3.398070 -19.747929
v 33.622467 3.360240 -19.747856
v 33.603828 3.325376 -19.747742
v 33.578751 3.294817 -19.747587
v 33.548195 3.269738 -19.747398
v 33.436157 3.639071 -19.746706
v 33.475502 3.635197 -19.746950
v 33.513329 3.623721 -19.747183
v 33.552696 3.601393 -19.747427
v 33.578751 3.580007 -19.747587
v 33.603828 3.549448 -19.747742
v 33.358986 3.251103 -19.746231
v 33.324127 3.269738 -19.746016
v 33.293568 3.294817 -19.745827
v 33.268486 3.325376 -19.745670
v 33.249855 3.360240 -19.745556
v 33.238377 3.398070 -19.745485
v 28.729410 5.755090 -19.661728
v 28.734303 6.233449 -19.662611
v 28.174244 6.233449 -19.656769
v 28.174244 5.755089 -19.656769
v 28.812529 6.233449 -19.745152
v 28.811699 5.755090 -19.740295
v 28.813576 5.755089 -19.825386
v 28.813576 6.233449 -19.825386
v 28.823669 5.755089 -19.825447
v 28.823669 6.233449 -19.825447
v 28.769009 5.755090 -19.676777
v 28.771740 6.233449 -19.678612
v 28.796047 5.755090 -19.703014
v 28.797855 6.233449 -19.705734
v 28.451485 6.196574 -19.715927
v 28.489315 6.208050 -19.716162
v 28.412117 6.174242 -19.715687
v 28.770063 5.777500 -19.656822
v 28.770063 6.208103 -19.656822
v 28.218742 6.208103 -19.653419
v 28.218742 5.777500 -19.653419
v 28.605827 5.823956 -19.716881
v 28.567997 5.812480 -19.716648
v 28.714962 6.087437 -19.717556
v 28.726437 6.049607 -19.717627
v 28.528656 5.808606 -19.716404
v 28.489315 5.812480 -19.716162
v 28.528656 6.211925 -19.716404
v 28.327000 6.010265 -19.715160
v 28.330875 6.049607 -19.715183
v 28.342350 6.087437 -19.715254
v 28.360985 6.122301 -19.715370
v 28.360985 6.122301 -19.715370
v 28.386065 6.152860 -19.715525
v 28.412117 6.174242 -19.715687
v 28.730312 6.010265 -19.717649
v 28.726437 5.970923 -19.717627
v 28.714962 5.933094 -19.717556
v 28.696327 5.898229 -19.717440
v 28.671249 5.867671 -19.717285
v 28.640690 5.842592 -19.717096
v 28.567997 6.208050 -19.716648
v 28.605827 6.196574 -19.716881
v 28.645195 6.174247 -19.717125
v 28.671249 6.152860 -19.717285
v 28.696327 6.122301 -19.717440
v 28.451485 5.823956 -19.715927
v 28.416622 5.842592 -19.715714
v 28.386065 5.867671 -19.715525
v 28.360985 5.898229 -19.715370
v 28.342350 5.933094 -19.715254
v 28.330875 5.970923 -19.715183
v 10.682308 6.138197 -9.727512
v 10.681425 6.616557 -9.732404
v 10.687268 6.616557 -9.172346
v 10.687268 6.138196 -9.172346
v 10.598881 6.616557 -9.810631
v 10.603737 6.138197 -9.809802
v 10.518650 6.138196 -9.811678
v 10.518650 6.616557 -9.811678
v 10.518589 6.138196 -9.821773
v 10.518588 6.616557 -9.821773
v 10.667261 6.138197 -9.767107
v 10.665426 6.616557 -9.769840
v 10.641022 6.138197 -9.794151
v 10.638302 6.616557 -9.795959
v 10.628109 6.579681 -9.449589
v 10.627874 6.591157 -9.487417
v 10.628351 6.557351 -9.410221
v 10.687214 6.160607 -9.768166
v 10.687214 6.591210 -9.768166
v 10.690619 6.591210 -9.216846
v 10.690619 6.160607 -9.216846
v 10.627155 6.207064 -9.603930
v 10.627389 6.195588 -9.566099
v 10.626482 6.470544 -9.713064
v 10.626410 6.432714 -9.724540
v 10.627632 6.191713 -9.526758
v 10.627874 6.195588 -9.487417
v 10.627632 6.595032 -9.526758
v 10.628878 6.393373 -9.325103
v 10.628853 6.432714 -9.328978
v 10.628782 6.470544 -9.340453
v 10.628782 6.470544 -9.340453
v 10.628668 6.505408 -9.359088
v 10.628351 6.557351 -9.410221
v 10.628668 6.505408 -9.359088
v 10.628512 6.535967 -9.384167
v 10.626387 6.393373 -9.728415
v 10.626410 6.354031 -9.724540
v 10.626482 6.316201 -9.713064
v 10.626596 6.281336 -9.694429
v 10.626751 6.250778 -9.669351
v 10.626940 6.225699 -9.638792
v 10.627389 6.591157 -9.566099
v 10.627155 6.579681 -9.603930
v 10.626912 6.557354 -9.643297
v 10.626751 6.535967 -9.669351
v 10.626596 6.505408 -9.694429
v 10.628109 6.207063 -9.449589
v 10.628324 6.225699 -9.414724
v 10.628512 6.250778 -9.384167
v 10.628668 6.281336 -9.359088
v 10.628782 6.316201 -9.340453
v 10.628853 6.354031 -9.328978
v 15.666286 6.596494 -18.754368
v 15.670784 7.074853 -18.756487
v 15.131322 7.074853 -18.605888
v 15.131322 6.596493 -18.605888
v 15.724982 7.074853 -18.856464
v 15.725438 6.596494 -18.851557
v 15.705228 6.596493 -18.934233
v 15.705228 7.074853 -18.934233
v 15.714962 6.596493 -18.936905
v 15.714962 7.074853 -18.936905
v 15.700642 6.596494 -18.779152
v 15.702805 7.074853 -18.781630
v 15.719971 6.596494 -18.811495
v 15.721013 7.074853 -18.814589
v 15.383806 7.037978 -18.734789
v 15.420285 7.049454 -18.744804
v 15.458223 6.650010 -18.755222
v 15.706826 6.618904 -18.760151
v 15.706826 7.049507 -18.760151
v 15.175172 7.049507 -18.614170
v 15.175172 6.618904 -18.614170
v 15.532640 6.665360 -18.775656
v 15.496161 6.653884 -18.765640
v 15.458223 6.650010 -18.755222
v 15.637883 6.928841 -18.804554
v 15.648949 6.891011 -18.807590
v 15.458223 7.053329 -18.755222
v 15.263762 6.851669 -18.701828
v 15.267498 6.891011 -18.702854
v 15.278563 6.928841 -18.705893
v 15.296534 6.963705 -18.710827
v 15.320718 6.994264 -18.717466
v 15.345844 7.015648 -18.724365
v 15.652685 6.851669 -18.808617
v 15.648949 6.812327 -18.807590
v 15.637883 6.774498 -18.804554
v 15.619913 6.739633 -18.799618
v 15.595729 6.709074 -18.792978
v 15.566261 6.683996 -18.784887
v 15.566261 6.683996 -18.784887
v 15.532640 6.665360 -18.775656
v 15.458223 6.650010 -18.755222
v 15.496161 7.049454 -18.765640
v 15.532640 7.037978 -18.775656
v 15.570605 7.015651 -18.786079
v 15.595729 6.994264 -18.792978
v 15.619913 6.963705 -18.799618
v 15.420286 6.653884 -18.744804
v 15.383806 6.665360 -18.734789
v 15.458223 6.650010 -18.755222
v 15.383806 6.665360 -18.734789
v 15.350186 6.683996 -18.725557
v 15.350186 6.683996 -18.725557
v 15.320718 6.709074 -18.717466
v 15.458223 6.650010 -18.755222
v 15.320718 6.709074 -18.717466
v 15.296534 6.739633 -18.710827
v 15.278563 6.774498 -18.705893
v 15.267498 6.812327 -18.702854
vt 0.000000 0.000000
vt 0.000000 0.000000
vt 0.000000 0.000000
vn -0.1546 -0.0288 -0.9876
vn -0.2009 -0.0138 -0.9795
vn 0.0041 0.0008 -1.0000
vn 0.0048 -0.0000 -1.0000
vn -0.9821 0.0165 -0.1876
vn -0.9738 -0.0108 -0.2269
vn -0.9811 -0.0002 -0.1933
vn -0.9824 -0.0004 -0.1867
vn 0.0075 -0.0000 -1.0000
vn -0.5241 -0.0041 -0.8516
vn -0.5579 -0.0013 -0.8299
vn -0.8171 0.0018 -0.5765
vn -0.8399 0.0044 -0.5427
vn -0.0075 -0.0000 1.0000
vn 0.9854 -0.0288 -0.1681
vn 0.9767 -0.0138 -0.2143
vn 1.0000 0.0008 -0.0096
vn 1.0000 -0.0000 -0.0089
vn 0.1741 0.0165 -0.9846
vn 0.2136 -0.0108 -0.9769
vn 0.1799 -0.0002 -0.9837
vn 0.1732 -0.0004 -0.9849
vn 1.0000 -0.0000 -0.0062
vn 0.8444 -0.0041 -0.5357
vn 0.8222 -0.0013 -0.5692
vn 0.5652 0.0018 -0.8249
vn 0.5312 0.0044 -0.8473
vn -1.0000 -0.0000 0.0062
vn -1.0000 -0.0000 0.0061
vn 0.9854 -0.0288 -0.1681
vn 0.9766 -0.0138 -0.2144
vn 1.0000 0.0008 -0.0096
vn 1.0000 -0.0000 -0.0089
vn 0.1742 0.0165 -0.9846
vn 0.2136 0.0081 -0.9769
vn 0.1799 -0.0002 -0.9837
vn 0.1733 -0.0000 -0.9849
vn 1.0000 -0.0000 -0.0062
vn 0.8443 -0.0041 -0.5358
vn 0.8222 -0.0014 -0.5692
vn 0.5652 0.0017 -0.8249
vn 0.5312 -0.0013 -0.8473
vn -1.0000 -0.0000 0.0062
vn -1.0000 -0.0000 0.0061
vn -1.0000 -0.0000 0.0064
vn 0.1741 -0.0147 -0.9846
vn 0.8443 0.0011 -0.5358
vn 0.8222 -0.0013 -0.5692
vn 0.5652 0.0018 -0.8249
vn 0.5312 0.0044 -0.8473
vn -1.0000 -0.0000 0.0063
vn 0.1681 -0.0288 0.9854
vn 0.2143 -0.0138 0.9767
vn 0.0096 0.0008 1.0000
vn 0.0089 -0.0000 1.0000
vn 0.9846 -0.0147 0.1741
vn 0.9769 0.0081 0.2137
vn 0.9837 -0.0002 0.1799
vn 0.9849 -0.0000 0.1733
vn 0.0062 -0.0000 1.0000
vn 0.5357 -0.0041 0.8444
vn 0.5692 -0.0013 0.8222
vn 0.8249 0.0018 0.5653
vn 0.8473 0.0044 0.5312
vn -0.0062 -0.0000 -1.0000
vn -0.0062 0.0001 -1.0000
vn 0.2144 -0.0138 0.9766
vn 0.9769 0.0081 0.2136
vn 0.9849 0.0003 0.1733
vn 0.5358 -0.0040 0.8443
vn 0.5693 -0.0014 0.8222
vn 0.8249 0.0017 0.5652
vn 0.9767 -0.0138 -0.2143
vn 0.8443 -0.0040 -0.5358
vn 0.5652 0.0017 -0.8250
vn 0.4174 -0.0288 0.9083
vn 0.4599 -0.0138 0.8879
vn 0.2681 0.0008 0.9634
vn 0.2674 -0.0000 0.9636
vn 0.9961 -0.0147 -0.0866
vn 0.9989 0.0081 -0.0465
vn 0.9967 -0.0002 -0.0808
vn 0.9962 -0.0000 -0.0876
vn 0.2648 -0.0000 0.9643
vn 0.7361 -0.0040 0.6769
vn 0.7626 -0.0013 0.6468
vn 0.9431 0.0017 0.3325
vn 0.9558 0.0044 0.2938
vn -0.2648 -0.0000 -0.9643
vn -0.2649 -0.0002 -0.9643
vn -0.2648 -0.0001 -0.9643
vn -0.2647 0.0002 -0.9643
vn -0.2648 0.0001 -0.9643
f 1/1/1 2/1/2 3/1/3
f 1/1/1 3/1/3 4/1/4
f 5/1/5 6/1/6 7/1/7
f 5/1/5 7/1/7 8/1/8
f 8/1/8 7/1/7 9/1/9
f 8/1/8 9/1/9 10/1/9
f 11/1/10 12/1/11 2/1/2
f 11/1/10 2/1/2 1/1/1
f 13/1/12 14/1/13 12/1/11
f 13/1/12 12/1/11 11/1/10
f 6/1/6 5/1/5 14/1/13
f 6/1/6 14/1/13 13/1/12
f 15/1/14 16/1/14 17/1/14
f 18/1/9 19/1/9 20/1/9
f 18/1/9 20/1/9 21/1/9
f 22/1/14 23/1/14 17/1/14
f 24/1/14 25/1/14 17/1/14
f 17/1/14 26/1/14 27/1/14
f 28/1/14 17/1/14 16/1/14
f 17/1/14 29/1/14 30/1/14
f 31/1/14 17/1/14 30/1/14
f 31/1/14 32/1/14 17/1/14
f 32/1/14 33/1/14 17/1/14
f 23/1/14 26/1/14 17/1/14
f 17/1/14 34/1/14 35/1/14
f 35/1/14 36/1/14 17/1/14
f 36/1/14 37/1/14 17/1/14
f 37/1/14 38/1/14 17/1/14
f 38/1/14 39/1/14 17/1/14
f 39/1/14 22/1/14 17/1/14
f 25/1/14 34/1/14 17/1/14
f 17/1/14 28/1/14 40/1/14
f 40/1/14 41/1/14 17/1/14
f 41/1/14 42/1/14 17/1/14
f 42/1/14 43/1/14 17/1/14
f 43/1/14 44/1/14 17/1/14
f 44/1/14 24/1/14 17/1/14
f 27/1/14 45/1/14 17/1/14
f 45/1/14 46/1/14 17/1/14
f 46/1/14 47/1/14 17/1/14
f 47/1/14 48/1/14 17/1/14
f 48/1/14 49/1/14 17/1/14
f 49/1/14 50/1/14 17/1/14
f 50/1/14 29/1/14 17/1/14
f 51/2/15 52/2/16 53/2/17
f 51/2/15 53/2/17 54/2/18
f 55/2/19 56/2/20 57/2/21
f 55/2/19 57/2/21 58/2/22
f 58/2/22 57/2/21 59/2/23
f 58/2/22 59/2/23 60/2/23
f 61/2/24 62/2/25 52/2/16
f 61/2/24 52/2/16 51/2/15
f 63/2/26 64/2/27 62/2/25
f 63/2/26 62/2/25 61/2/24
f 56/2/20 55/2/19 64/2/27
f 56/2/20 64/2/27 63/2/26
f 65/2/28 66/2/28 67/2/28
f 68/2/23 69/2/23 70/2/23
f 68/2/23 70/2/23 71/2/23
f 72/2/28 73/2/28 67/2/28
f 74/2/28 75/2/28 67/2/28
f 67/2/28 76/2/28 77/2/28
f 78/2/28 67/2/28 66/2/28
f 67/2/28 79/2/28 80/2/28
f 81/2/28 67/2/28 80/2/28
f 81/2/28 82/2/28 67/2/28
f 82/2/28 83/2/28 67/2/28
f 73/2/28 76/2/28 67/2/28
f 67/2/28 84/2/28 85/2/28
f 85/2/28 86/2/28 67/2/28
f 86/2/28 87/2/28 67/2/28
f 87/2/28 88/2/28 67/2/28
f 88/2/28 89/2/28 67/2/28
f 89/2/28 72/2/28 67/2/28
f 75/2/28 84/2/28 67/2/28
f 67/2/28 78/2/28 90/2/28
f 90/2/28 91/2/28 67/2/28
f 91/2/28 92/2/28 67/2/28
f 92/2/28 93/2/28 67/2/28
f 93/2/28 94/2/28 67/2/28
f 94/2/28 74/2/28 67/2/28
f 77/2/28 95/2/28 67/2/28
f 95/2/28 96/2/28 67/2/28
f 96/2/28 97/2/28 67/2/28
f 97/2/28 98/2/28 67/2/28
f 98/2/29 99/2/29 67/2/29
f 99/2/28 100/2/28 67/2/28
f 100/2/28 79/2/28 67/2/28
f 101/3/30 102/3/31 103/3/32
f 101/3/30 103/3/32 104/3/33
f 105/3/34 106/3/35 107/3/36
f 105/3/34 107/3/36 108/3/37
f 108/3/37 107/3/36 109/3/38
f 108/3/37 109/3/38 110/3/38
f 111/3/39 112/3/40 102/3/31
f 111/3/39 102/3/31 101/3/30
f 113/3/41 114/3/42 112/3/40
f 113/3/41 112/3/40 111/3/39
f 106/3/35 105/3/34 114/3/42
f 106/3/35 114/3/42 113/3/41
f 115/3/43 116/3/43 117/3/43
f 118/3/38 119/3/38 120/3/38
f 118/3/38 120/3/38 121/3/38
f 122/3/43 123/3/43 117/3/43
f 124/3/43 125/3/43 117/3/43
f 117/3/43 126/3/43 127/3/43
f 128/3/43 117/3/43 116/3/43
f 117/3/43 129/3/43 130/3/43
f 131/3/43 117/3/43 130/3/43
f 131/3/43 132/3/43 117/3/43
f 132/3/43 133/3/43 117/3/43
f 133/3/43 134/3/43 117/3/43
f 134/3/43 115/3/43 117/3/43
f 123/3/43 126/3/43 117/3/43
f 117/3/43 135/3/43 136/3/43
f 136/3/43 137/3/43 117/3/43
f 137/3/44 138/3/44 117/3/44
f 138/3/43 139/3/43 117/3/43
f 139/3/43 140/3/43 117/3/43
f 140/3/44 122/3/44 117/3/44
f 125/3/43 135/3/43 117/3/43
f 117/3/43 128/3/43 141/3/43
f 142/3/45 143/3/45 144/3/45
f 145/3/43 146/3/43 117/3/43
f 146/3/43 124/3/43 117/3/43
f 127/3/43 147/3/43 117/3/43
f 147/3/43 148/3/43 117/3/43
f 148/3/44 149/3/44 117/3/44
f 149/3/43 150/3/43 117/3/43
f 150/3/43 151/3/43 117/3/43
f 151/3/43 152/3/43 117/3/43
f 152/3/43 129/3/43 117/3/43
f 153/3/30 154/3/31 155/3/32
f 153/3/30 155/3/32 156/3/33
f 157/3/46 158/3/35 159/3/36
f 157/3/46 159/3/36 160/3/37
f 160/3/37 159/3/36 161/3/38
f 160/3/37 161/3/38 162/3/38
f 163/3/47 164/3/48 154/3/31
f 163/3/47 154/3/31 153/3/30
f 165/3/49 166/3/50 164/3/48
f 165/3/49 164/3/48 163/3/47
f 158/3/35 157/3/46 166/3/50
f 158/3/35 166/3/50 165/3/49
f 167/3/43 168/3/43 169/3/43
f 170/3/38 171/3/38 172/3/38
f 170/3/38 172/3/38 173/3/38
f 174/3/43 175/3/43 169/3/43
f 176/3/43 177/3/43 178/3/43
f 169/3/43 179/3/43 180/3/43
f 181/3/43 169/3/43 168/3/43
f 169/3/43 182/3/43 183/3/43
f 184/3/43 169/3/43 183/3/43
f 184/3/43 185/3/43 169/3/43
f 185/3/43 186/3/43 169/3/43
f 186/3/43 187/3/43 169/3/43
f 187/3/43 167/3/43 169/3/43
f 175/3/43 179/3/43 169/3/43
f 169/3/43 188/3/43 189/3/43
f 189/3/43 190/3/43 169/3/43
f 190/3/43 191/3/43 169/3/43
f 191/3/43 192/3/43 169/3/43
f 192/3/43 193/3/43 169/3/43
f 193/3/44 174/3/44 169/3/44
f 194/3/43 188/3/43 169/3/43
f 169/3/44 181/3/44 195/3/44
f 196/3/51 197/3/51 178/3/51
f 198/3/43 199/3/43 169/3/43
f 199/3/43 200/3/43 169/3/43
f 180/3/43 201/3/43 169/3/43
f 201/3/43 202/3/43 169/3/43
f 202/3/44 203/3/44 169/3/44
f 203/3/43 204/3/43 169/3/43
f 204/3/43 205/3/43 169/3/43
f 205/3/43 206/3/43 169/3/43
f 206/3/43 182/3/43 169/3/43
f 207/3/52 208/3/53 209/3/54
f 207/3/52 209/3/54 210/3/55
f 211/3/56 212/3/57 213/3/58
f 211/3/56 213/3/58 214/3/59
f 214/3/59 213/3/58 215/3/60
f 214/3/59 215/3/60 216/3/60
f 217/3/61 218/3/62 208/3/53
f 217/3/61 208/3/53 207/3/52
f 219/3/63 220/3/64 218/3/62
f 219/3/63 218/3/62 217/3/61
f 212/3/57 211/3/56 220/3/64
f 212/3/57 220/3/64 219/3/63
f 221/3/65 222/3/65 223/3/65
f 224/3/60 225/3/60 226/3/60
f 224/3/60 226/3/60 227/3/60
f 228/3/65 229/3/65 223/3/65
f 230/3/65 231/3/65 223/3/65
f 223/3/65 232/3/65 233/3/65
f 234/3/66 235/3/66 236/3/66
f 223/3/65 237/3/65 238/3/65
f 239/3/65 223/3/65 238/3/65
f 239/3/65 240/3/65 223/3/65
f 240/3/65 241/3/65 223/3/65
f 229/3/65 232/3/65 223/3/65
f 223/3/65 242/3/65 243/3/65
f 243/3/65 244/3/65 223/3/65
f 244/3/65 245/3/65 223/3/65
f 245/3/65 246/3/65 223/3/65
f 246/3/65 247/3/65 223/3/65
f 247/3/65 228/3/65 223/3/65
f 231/3/65 242/3/65 223/3/65
f 223/3/65 248/3/65 249/3/65
f 249/3/65 250/3/65 223/3/65
f 250/3/65 251/3/65 223/3/65
f 251/3/65 252/3/65 223/3/65
f 252/3/65 253/3/65 223/3/65
f 253/3/65 230/3/65 223/3/65
f 233/3/65 254/3/65 223/3/65
f 254/3/65 255/3/65 223/3/65
f 255/3/65 256/3/65 223/3/65
f 256/3/65 257/3/65 223/3/65
f 257/3/65 258/3/65 223/3/65
f 258/3/65 259/3/65 223/3/65
f 259/3/65 237/3/65 223/3/65
f 260/3/52 261/3/67 262/3/54
f 260/3/52 262/3/54 263/3/55
f 264/3/56 265/3/68 266/3/58
f 264/3/56 266/3/58 267/3/69
f 267/3/69 266/3/58 268/3/60
f 267/3/69 268/3/60 269/3/60
f 270/3/70 271/3/71 261/3/67
f 270/3/70 261/3/67 260/3/52
f 272/3/72 273/3/64 271/3/71
f 272/3/72 271/3/71 270/3/70
f 265/3/68 264/3/56 273/3/64
f 265/3/68 273/3/64 272/3/72
f 274/3/65 275/3/65 276/3/65
f 277/3/60 278/3/60 279/3/60
f 277/3/60 279/3/60 280/3/60
f 281/3/65 282/3/65 276/3/65
f 283/3/65 284/3/65 276/3/65
f 276/3/65 285/3/65 286/3/65
f 287/3/65 276/3/65 275/3/65
f 276/3/65 288/3/65 289/3/65
f 290/3/65 276/3/65 289/3/65
f 290/3/65 291/3/65 276/3/65
f 292/3/66 293/3/66 294/3/66
f 282/3/65 285/3/65 276/3/65
f 276/3/65 295/3/65 296/3/65
f 296/3/65 297/3/65 276/3/65
f 297/3/65 298/3/65 276/3/65
f 298/3/65 299/3/65 276/3/65
f 299/3/65 300/3/65 276/3/65
f 300/3/65 281/3/65 276/3/65
f 284/3/65 295/3/65 276/3/65
f 276/3/65 287/3/65 301/3/65
f 301/3/65 302/3/65 276/3/65
f 302/3/65 303/3/65 276/3/65
f 303/3/65 304/3/65 276/3/65
f 304/3/65 305/3/65 276/3/65
f 305/3/65 283/3/65 276/3/65
f 286/3/65 306/3/65 276/3/65
f 306/3/65 307/3/65 276/3/65
f 307/3/65 308/3/65 276/3/65
f 308/3/65 309/3/65 276/3/65
f 309/3/65 310/3/65 276/3/65
f 310/3/65 311/3/65 276/3/65
f 311/3/65 288/3/65 276/3/65
f 312/3/30 313/3/73 314/3/32
f 312/3/30 314/3/32 315/3/33
f 316/3/46 317/3/35 318/3/36
f 316/3/46 318/3/36 319/3/37
f 319/3/37 318/3/36 320/3/38
f 319/3/37 320/3/38 321/3/38
f 322/3/74 323/3/48 313/3/73
f 322/3/74 313/3/73 312/3/30
f 324/3/75 325/3/50 323/3/48
f 324/3/75 323/3/48 322/3/74
f 317/3/35 316/3/46 325/3/50
f 317/3/35 325/3/50 324/3/75
f 326/3/43 327/3/43 328/3/43
f 329/3/38 330/3/38 331/3/38
f 329/3/38 331/3/38 332/3/38
f 333/3/43 334/3/43 328/3/43
f 335/3/43 336/3/43 328/3/43
f 328/3/43 337/3/43 338/3/43
f 339/3/43 328/3/43 327/3/43
f 328/3/44 340/3/44 341/3/44
f 342/3/43 328/3/43 341/3/43
f 343/3/43 344/3/43 345/3/43
f 346/3/43 347/3/43 328/3/43
f 334/3/44 337/3/44 328/3/44
f 328/3/43 348/3/43 349/3/43
f 349/3/43 350/3/43 328/3/43
f 350/3/43 351/3/43 328/3/43
f 351/3/43 352/3/43 328/3/43
f 352/3/43 353/3/43 328/3/43
f 353/3/43 333/3/43 328/3/43
f 336/3/43 348/3/43 328/3/43
f 328/3/43 339/3/43 354/3/43
f 354/3/43 355/3/43 328/3/43
f 355/3/43 356/3/43 328/3/43
f 356/3/43 357/3/43 328/3/43
f 357/3/43 358/3/43 328/3/43
f 358/3/43 335/3/43 328/3/43
f 338/3/43 359/3/43 328/3/43
f 359/3/43 360/3/43 328/3/43
f 360/3/43 361/3/43 328/3/43
f 361/3/43 362/3/43 328/3/43
f 362/3/43 363/3/43 328/3/43
f 363/3/43 364/3/43 328/3/43
f 364/3/43 340/3/43 328/3/43
f 365/3/76 366/3/77 367/3/78
f 365/3/76 367/3/78 368/3/79
f 369/3/80 370/3/81 371/3/82
f 369/3/80 371/3/82 372/3/83
f 372/3/83 371/3/82 373/3/84
f 372/3/83 373/3/84 374/3/84
f 375/3/85 376/3/86 366/3/77
f 375/3/85 366/3/77 365/3/76
f 377/3/87 378/3/88 376/3/86
f 377/3/87 376/3/86 375/3/85
f 370/3/81 369/3/80 378/3/88
f 370/3/81 378/3/88 377/3/87
f 379/3/89 380/3/89 381/3/89
f 382/3/84 383/3/84 384/3/84
f 382/3/84 384/3/84 385/3/84
f 386/3/90 387/3/90 388/3/90
f 389/3/89 390/3/89 381/3/89
f 391/3/89 381/3/89 380/3/89
f 381/3/89 392/3/89 393/3/89
f 394/3/89 381/3/89 393/3/89
f 394/3/89 395/3/89 381/3/89
f 395/3/89 396/3/89 381/3/89
f 396/3/89 397/3/89 381/3/89
f 397/3/89 379/3/89 381/3/89
f 381/3/89 398/3/89 399/3/89
f 399/3/89 400/3/89 381/3/89
f 400/3/89 401/3/89 381/3/89
f 401/3/89 402/3/89 381/3/89
f 402/3/89 403/3/89 381/3/89
f 404/3/91 405/3/91 406/3/91
f 390/3/89 398/3/89 381/3/89
f 381/3/89 391/3/89 407/3/89
f 407/3/89 408/3/89 381/3/89
f 408/3/89 409/3/89 381/3/89
f 409/3/89 410/3/89 381/3/89
f 410/3/89 411/3/89 381/3/89
f 411/3/89 389/3/89 381/3/89
f 412/3/92 413/3/92 414/3/92
f 415/3/91 416/3/91 406/3/91
f 417/3/93 418/3/93 419/3/93
f 420/3/89 421/3/89 381/3/89
f 421/3/89 422/3/89 381/3/89
f 422/3/89 423/3/89 381/3/89
f 423/3/89 392/3/89 381/3/89
