v 6.154445 2.739615 -20.733517
v 6.665406 2.521664 -20.753473
v 6.669746 2.947079 -20.753643
v 6.372229 3.250966 -20.742023
v 5.947138 3.255309 -20.725420
v 5.643484 2.957566 -20.713560
v 5.639144 2.532150 -20.713390
v 5.936661 2.228265 -20.725012
v 6.361752 2.223921 -20.741613
v 6.666197 2.521312 -20.754404
v 6.670545 2.947416 -20.754574
v 6.372547 3.251793 -20.742935
v 5.946768 3.256144 -20.726305
v 5.642624 2.957918 -20.714426
v 5.638276 2.531814 -20.714256
v 5.936274 2.227438 -20.725895
v 6.362053 2.223087 -20.742525
vt 0.500000 0.500200
vt 0.953300 0.690900
vt 0.955300 0.314500
vt 0.690700 0.046900
vt 0.314300 0.044900
vt 0.046700 0.309500
vt 0.044700 0.685900
vt 0.309300 0.953500
vt 0.685700 0.955500
vt 0.954000 0.691200
vt 0.956100 0.314200
vt 0.691000 0.046200
vt 0.314000 0.044100
vt 0.046000 0.309200
vt 0.043900 0.686200
vt 0.309000 0.954200
vt 0.686000 0.956300
vn 0.0390 -0.0000 0.9992
vn 0.4557 -0.1797 0.8718
vn 0.4593 0.1709 0.8717
vn 0.2141 0.4214 0.8813
vn -0.1361 0.4246 0.8951
vn -0.3867 0.1798 0.9045
vn -0.3900 -0.1710 0.9048
vn -0.1448 -0.4213 0.8953
vn 0.2054 -0.4250 0.8816
vn 0.3091 -0.1159 0.9439
vn 0.3113 0.1103 0.9439
vn 0.3586 0.8712 -0.3353
vn -0.3658 0.8788 -0.3063
vn -0.8831 0.3714 -0.2867
vn -0.8905 -0.3534 -0.2864
vn -0.3837 -0.8714 -0.3059
vn 0.1475 -0.2742 0.9503
f 1/1/1 2/2/2 3/3/3
f 1/1/1 3/3/3 4/4/4
f 1/1/1 4/4/4 5/5/5
f 1/1/1 5/5/5 6/6/6
f 1/1/1 6/6/6 7/7/7
f 1/1/1 7/7/7 8/8/8
f 1/1/1 8/8/8 9/9/9
f 1/1/1 9/9/9 2/2/2
f 2/2/2 10/10/10 11/11/11
f 2/2/2 11/11/11 3/3/3
f 3/3/3 11/11/11 12/12/12
f 3/3/3 12/12/12 4/4/4
f 4/4/4 12/12/12 13/13/13
f 4/4/4 13/13/13 5/5/5
f 5/5/5 13/13/13 14/14/14
f 5/5/5 14/14/14 6/6/6
f 6/6/6 14/14/14 15/15/15
f 6/6/6 15/15/15 7/7/7
f 7/7/7 15/15/15 16/16/16
f 7/7/7 16/16/16 8/8/8
f 8/8/8 16/16/16 17/17/17
f 8/8/8 17/17/17 9/9/9
f 9/9/9 17/17/17 10/10/10
f 9/9/9 10/10/10 2/2/2
